<svg id="svg" version="1.1" xmlns="http://www.w3.org/2000/svg" xmlns:xlink="http://www.w3.org/1999/xlink" width="400" height="390.8396946564886" viewBox="0, 0, 400,390.8396946564886"><g id="svgg"><path id="path0" d="M183.283 0.229 C 183.144 0.368,181.452 0.457,179.522 0.426 C 177.480 0.393,175.909 0.538,175.764 0.771 C 175.628 0.992,174.305 1.173,172.825 1.173 C 171.345 1.173,170.025 1.349,169.892 1.564 C 169.760 1.779,168.693 1.955,167.523 1.955 C 166.353 1.955,165.396 2.131,165.396 2.346 C 165.396 2.561,164.439 2.737,163.268 2.737 C 162.098 2.737,161.032 2.913,160.899 3.128 C 160.766 3.343,159.975 3.519,159.140 3.519 C 158.305 3.519,157.513 3.695,157.380 3.910 C 157.247 4.125,156.456 4.301,155.621 4.301 C 154.786 4.301,153.994 4.477,153.861 4.692 C 153.728 4.907,153.014 5.083,152.274 5.083 C 151.534 5.083,150.929 5.259,150.929 5.474 C 150.929 5.689,150.225 5.865,149.365 5.865 C 148.504 5.865,147.801 6.041,147.801 6.256 C 147.801 6.471,147.097 6.647,146.237 6.647 C 145.376 6.647,144.673 6.823,144.673 7.038 C 144.673 7.253,144.145 7.429,143.500 7.429 C 142.854 7.429,142.326 7.585,142.326 7.775 C 142.326 7.965,141.359 8.242,140.176 8.390 C 138.993 8.538,137.782 8.901,137.485 9.198 C 137.188 9.495,136.850 9.642,136.733 9.525 C 136.497 9.290,133.744 10.146,133.157 10.637 C 132.953 10.808,132.381 10.948,131.887 10.948 C 131.392 10.948,130.987 11.124,130.987 11.339 C 130.987 11.554,130.459 11.730,129.814 11.730 C 129.169 11.730,128.641 11.906,128.641 12.121 C 128.641 12.336,128.300 12.512,127.882 12.512 C 127.465 12.512,127.015 12.688,126.882 12.903 C 126.749 13.118,126.211 13.294,125.686 13.294 C 125.161 13.294,124.731 13.470,124.731 13.685 C 124.731 13.900,124.390 14.076,123.972 14.076 C 123.555 14.076,123.105 14.252,122.972 14.467 C 122.839 14.682,122.388 14.858,121.971 14.858 C 121.554 14.858,121.212 15.034,121.212 15.249 C 121.212 15.464,120.860 15.640,120.430 15.640 C 120.000 15.640,119.648 15.784,119.648 15.961 C 119.648 16.137,118.768 16.520,117.693 16.813 C 116.618 17.106,115.738 17.490,115.738 17.666 C 115.738 17.842,115.386 17.986,114.956 17.986 C 114.526 17.986,114.174 18.162,114.174 18.377 C 114.174 18.592,113.822 18.768,113.392 18.768 C 112.962 18.768,112.610 18.944,112.610 19.159 C 112.610 19.374,112.258 19.550,111.828 19.550 C 111.398 19.550,111.046 19.726,111.046 19.941 C 111.046 20.156,110.694 20.332,110.264 20.332 C 109.834 20.332,109.482 20.508,109.482 20.723 C 109.482 20.938,109.130 21.114,108.700 21.114 C 108.270 21.114,107.918 21.290,107.918 21.505 C 107.918 21.720,107.566 21.896,107.136 21.896 C 106.706 21.896,106.354 22.072,106.354 22.287 C 106.354 22.502,106.090 22.678,105.767 22.678 C 105.445 22.678,105.181 22.854,105.181 23.069 C 105.181 23.284,104.829 23.460,104.399 23.460 C 103.969 23.460,103.617 23.603,103.617 23.778 C 103.617 23.953,102.737 24.480,101.662 24.950 C 100.587 25.419,99.707 25.980,99.707 26.196 C 99.707 26.412,99.575 26.554,99.413 26.511 C 98.880 26.370,97.361 27.026,97.361 27.397 C 97.361 27.597,97.009 27.761,96.579 27.761 C 96.149 27.761,95.797 27.937,95.797 28.152 C 95.797 28.368,95.566 28.543,95.284 28.543 C 95.002 28.543,94.393 28.895,93.932 29.326 C 93.470 29.756,92.886 30.108,92.633 30.108 C 92.380 30.108,91.889 30.417,91.541 30.794 C 91.194 31.172,90.425 31.730,89.834 32.034 C 89.242 32.337,88.759 32.732,88.759 32.911 C 88.759 33.089,88.495 33.236,88.172 33.236 C 87.849 33.236,87.586 33.382,87.586 33.561 C 87.586 33.739,87.102 34.134,86.510 34.438 C 85.919 34.741,85.150 35.299,84.803 35.677 C 84.455 36.055,83.969 36.364,83.724 36.364 C 83.478 36.364,82.725 36.891,82.050 37.537 C 81.375 38.182,80.649 38.710,80.438 38.710 C 80.226 38.710,79.750 39.059,79.380 39.485 C 79.010 39.911,78.263 40.491,77.719 40.773 C 75.561 41.893,70.631 46.258,71.051 46.678 C 71.184 46.811,70.904 46.921,70.428 46.921 C 69.878 46.921,68.603 47.886,66.938 49.560 C 65.496 51.012,63.650 52.698,62.836 53.307 C 60.956 54.713,54.688 60.988,53.274 62.878 C 52.683 63.669,51.012 65.496,49.560 66.938 C 48.109 68.381,46.921 69.718,46.921 69.909 C 46.921 70.100,46.173 71.067,45.259 72.057 C 43.091 74.404,41.316 76.599,40.629 77.781 C 40.326 78.303,39.594 79.253,39.003 79.892 C 38.412 80.531,37.928 81.253,37.928 81.497 C 37.928 81.740,37.576 82.192,37.146 82.502 C 36.716 82.812,36.364 83.293,36.364 83.570 C 36.364 83.847,35.836 84.626,35.191 85.301 C 34.545 85.976,34.018 86.766,34.018 87.057 C 34.018 87.348,33.871 87.586,33.693 87.586 C 33.514 87.586,33.118 88.069,32.813 88.661 C 32.508 89.252,31.978 90.047,31.636 90.427 C 31.294 90.807,30.767 91.599,30.463 92.186 C 30.160 92.774,29.604 93.596,29.228 94.013 C 28.851 94.430,28.543 95.002,28.543 95.284 C 28.543 95.566,28.388 95.797,28.198 95.797 C 28.008 95.797,27.755 96.105,27.636 96.481 C 27.355 97.366,26.103 99.438,25.652 99.765 C 25.459 99.905,25.410 100.301,25.542 100.645 C 25.696 101.047,25.573 101.271,25.198 101.271 C 24.862 101.271,24.514 101.769,24.379 102.444 C 24.250 103.089,23.991 103.617,23.803 103.617 C 23.614 103.617,23.460 103.969,23.460 104.399 C 23.460 104.829,23.317 105.181,23.142 105.181 C 22.967 105.181,22.583 105.797,22.287 106.549 C 21.992 107.302,21.607 107.918,21.432 107.918 C 21.257 107.918,21.114 108.270,21.114 108.700 C 21.114 109.130,20.938 109.482,20.723 109.482 C 20.508 109.482,20.332 109.834,20.332 110.264 C 20.332 110.694,20.156 111.046,19.941 111.046 C 19.726 111.046,19.550 111.398,19.550 111.828 C 19.550 112.258,19.374 112.610,19.159 112.610 C 18.944 112.610,18.768 112.962,18.768 113.392 C 18.768 113.822,18.592 114.174,18.377 114.174 C 18.162 114.174,17.986 114.526,17.986 114.956 C 17.986 115.386,17.810 115.738,17.595 115.738 C 17.380 115.738,17.204 116.090,17.204 116.520 C 17.204 116.950,17.028 117.302,16.813 117.302 C 16.598 117.302,16.422 117.830,16.422 118.475 C 16.422 119.120,16.246 119.648,16.031 119.648 C 15.816 119.648,15.640 120.000,15.640 120.430 C 15.640 120.860,15.464 121.212,15.249 121.212 C 15.034 121.212,14.858 121.564,14.858 121.994 C 14.858 122.424,14.682 122.776,14.467 122.776 C 14.252 122.776,14.076 123.216,14.076 123.754 C 14.076 124.291,13.900 124.731,13.685 124.731 C 13.470 124.731,13.294 125.073,13.294 125.490 C 13.294 125.908,13.118 126.358,12.903 126.491 C 12.688 126.624,12.512 127.162,12.512 127.687 C 12.512 128.212,12.336 128.641,12.121 128.641 C 11.906 128.641,11.730 129.046,11.730 129.541 C 11.730 130.035,11.585 130.607,11.407 130.811 C 11.230 131.016,10.846 131.975,10.555 132.942 C 10.264 133.910,9.861 134.920,9.661 135.186 C 9.461 135.452,9.404 135.949,9.535 136.290 C 9.666 136.631,9.515 137.169,9.199 137.485 C 8.883 137.800,8.508 138.935,8.366 140.006 C 8.224 141.077,7.955 142.047,7.769 142.163 C 7.582 142.278,7.429 142.890,7.429 143.523 C 7.429 144.155,7.253 144.673,7.038 144.673 C 6.823 144.673,6.647 145.376,6.647 146.237 C 6.647 147.097,6.471 147.801,6.256 147.801 C 6.041 147.801,5.865 148.328,5.865 148.974 C 5.865 149.619,5.689 150.147,5.474 150.147 C 5.259 150.147,5.083 150.840,5.083 151.688 C 5.083 152.535,4.907 153.337,4.692 153.470 C 4.477 153.603,4.301 154.395,4.301 155.230 C 4.301 156.065,4.125 156.856,3.910 156.989 C 3.695 157.122,3.519 158.012,3.519 158.967 C 3.519 159.922,3.343 160.704,3.128 160.704 C 2.913 160.704,2.737 161.584,2.737 162.659 C 2.737 163.734,2.561 164.614,2.346 164.614 C 2.129 164.614,1.955 165.657,1.955 166.960 C 1.955 168.263,1.781 169.306,1.564 169.306 C 1.342 169.306,1.173 170.453,1.173 171.965 C 1.173 173.571,0.979 174.817,0.684 175.112 C 0.303 175.493,0.196 181.097,0.196 200.476 C 0.196 220.028,0.300 225.385,0.684 225.513 C 1.007 225.621,1.173 226.521,1.173 228.162 C 1.173 229.529,1.349 230.757,1.564 230.890 C 1.779 231.022,1.955 232.089,1.955 233.259 C 1.955 234.429,2.131 235.386,2.346 235.386 C 2.561 235.386,2.737 236.256,2.737 237.318 C 2.737 238.381,2.913 239.359,3.128 239.492 C 3.343 239.625,3.519 240.515,3.519 241.470 C 3.519 242.425,3.695 243.206,3.910 243.206 C 4.125 243.206,4.301 243.988,4.301 244.943 C 4.301 245.898,4.477 246.788,4.692 246.921 C 4.907 247.054,5.083 247.758,5.083 248.485 C 5.083 249.212,5.259 249.916,5.474 250.049 C 5.689 250.182,5.865 250.896,5.865 251.636 C 5.865 252.376,6.041 252.981,6.256 252.981 C 6.471 252.981,6.647 253.509,6.647 254.154 C 6.647 254.800,6.823 255.327,7.038 255.327 C 7.253 255.327,7.429 256.031,7.429 256.891 C 7.429 257.752,7.582 258.456,7.770 258.456 C 7.957 258.456,8.226 259.328,8.368 260.394 C 8.509 261.460,8.873 262.581,9.177 262.884 C 9.480 263.188,9.636 263.791,9.522 264.225 C 9.409 264.659,9.507 265.133,9.741 265.277 C 9.975 265.422,10.166 265.969,10.166 266.494 C 10.166 267.019,10.342 267.449,10.557 267.449 C 10.772 267.449,10.948 267.803,10.948 268.236 C 10.948 268.669,11.124 269.373,11.339 269.800 C 11.554 270.227,11.906 270.926,12.121 271.353 C 12.336 271.781,12.512 272.484,12.512 272.917 C 12.512 273.350,12.688 273.705,12.903 273.705 C 13.118 273.705,13.294 274.046,13.294 274.464 C 13.294 274.881,13.470 275.331,13.685 275.464 C 13.900 275.597,14.076 276.135,14.076 276.660 C 14.076 277.185,14.252 277.615,14.467 277.615 C 14.682 277.615,14.858 277.967,14.858 278.397 C 14.858 278.827,15.034 279.179,15.249 279.179 C 15.464 279.179,15.640 279.619,15.640 280.156 C 15.640 280.694,15.816 281.134,16.031 281.134 C 16.246 281.134,16.422 281.381,16.422 281.683 C 16.422 282.335,18.053 285.573,18.475 285.761 C 18.636 285.833,18.768 286.228,18.768 286.641 C 18.768 287.053,18.944 287.390,19.159 287.390 C 19.374 287.390,19.550 287.742,19.550 288.172 C 19.550 288.602,19.726 288.954,19.941 288.954 C 20.156 288.954,20.332 289.306,20.332 289.736 C 20.332 290.166,20.508 290.518,20.723 290.518 C 20.938 290.518,21.114 290.870,21.114 291.300 C 21.114 291.730,21.290 292.082,21.505 292.082 C 21.720 292.082,21.896 292.434,21.896 292.864 C 21.896 293.294,22.072 293.646,22.287 293.646 C 22.502 293.646,22.678 293.998,22.678 294.428 C 22.678 294.858,22.854 295.210,23.069 295.210 C 23.284 295.210,23.460 295.562,23.460 295.992 C 23.460 296.422,23.636 296.774,23.851 296.774 C 24.066 296.774,24.242 297.042,24.242 297.368 C 24.242 297.695,24.682 298.660,25.220 299.511 C 25.758 300.363,26.197 301.239,26.197 301.459 C 26.197 301.678,26.373 301.857,26.588 301.857 C 26.804 301.857,26.979 302.088,26.979 302.370 C 26.979 302.652,27.331 303.261,27.761 303.722 C 28.192 304.184,28.543 304.833,28.543 305.164 C 28.543 305.496,28.719 305.767,28.935 305.767 C 29.150 305.767,29.326 305.998,29.326 306.280 C 29.326 306.562,29.677 307.171,30.108 307.632 C 30.538 308.094,30.890 308.704,30.890 308.988 C 30.890 309.272,31.241 309.758,31.672 310.068 C 32.102 310.378,32.454 310.906,32.454 311.241 C 32.454 311.577,32.805 312.104,33.236 312.414 C 33.666 312.724,34.018 313.252,34.018 313.587 C 34.018 313.923,34.370 314.451,34.800 314.761 C 35.230 315.071,35.582 315.486,35.582 315.684 C 35.582 315.882,36.109 316.549,36.755 317.165 C 37.400 317.782,37.928 318.462,37.928 318.678 C 37.928 318.893,38.456 319.621,39.101 320.296 C 39.746 320.971,40.277 321.717,40.280 321.954 C 40.283 322.191,40.811 322.981,41.453 323.709 C 42.095 324.437,42.620 325.180,42.620 325.360 C 42.620 325.541,43.412 326.480,44.379 327.448 C 45.347 328.415,46.139 329.370,46.139 329.569 C 46.139 330.064,49.949 333.920,50.438 333.920 C 50.654 333.920,50.831 334.166,50.831 334.466 C 50.831 334.767,52.107 336.340,53.666 337.963 C 55.225 339.585,57.644 342.116,59.042 343.587 C 61.168 345.824,63.852 348.226,66.371 350.147 C 66.653 350.362,67.870 351.461,69.076 352.590 C 70.282 353.719,71.421 354.643,71.608 354.643 C 71.795 354.643,72.583 355.347,73.360 356.207 C 74.137 357.067,74.946 357.771,75.157 357.771 C 75.369 357.771,76.035 358.299,76.637 358.944 C 77.240 359.589,77.944 360.117,78.201 360.117 C 78.459 360.117,79.163 360.645,79.765 361.290 C 80.368 361.935,81.062 362.463,81.309 362.463 C 81.555 362.463,82.182 362.890,82.703 363.411 C 83.224 363.931,84.008 364.471,84.445 364.610 C 84.882 364.749,85.239 364.999,85.239 365.167 C 85.239 365.335,85.943 365.790,86.804 366.178 C 87.664 366.566,88.368 367.032,88.368 367.215 C 88.368 367.397,88.593 367.546,88.868 367.546 C 89.143 367.546,89.622 367.898,89.932 368.328 C 90.242 368.759,90.769 369.110,91.105 369.110 C 91.440 369.110,91.968 369.462,92.278 369.892 C 92.588 370.323,93.154 370.674,93.537 370.674 C 93.920 370.674,94.233 370.850,94.233 371.065 C 94.233 371.281,94.546 371.457,94.928 371.457 C 95.311 371.457,95.878 371.808,96.188 372.239 C 96.498 372.669,97.064 373.021,97.447 373.021 C 97.830 373.021,98.143 373.196,98.143 373.412 C 98.143 373.627,98.456 373.803,98.838 373.803 C 99.221 373.803,99.788 374.154,100.098 374.585 C 100.408 375.015,100.974 375.367,101.357 375.367 C 101.740 375.367,102.053 375.543,102.053 375.758 C 102.053 375.973,102.405 376.149,102.835 376.149 C 103.265 376.149,103.617 376.292,103.617 376.467 C 103.617 376.642,104.233 377.026,104.985 377.322 C 105.738 377.617,106.354 378.002,106.354 378.177 C 106.354 378.352,106.706 378.495,107.136 378.495 C 107.566 378.495,107.918 378.671,107.918 378.886 C 107.918 379.101,108.270 379.277,108.700 379.277 C 109.130 379.277,109.482 379.453,109.482 379.668 C 109.482 379.883,109.834 380.059,110.264 380.059 C 110.694 380.059,111.046 380.235,111.046 380.450 C 111.046 380.665,111.398 380.841,111.828 380.841 C 112.258 380.841,112.610 381.017,112.610 381.232 C 112.610 381.447,112.962 381.623,113.392 381.623 C 113.822 381.623,114.174 381.783,114.174 381.979 C 114.174 382.175,114.878 382.455,115.738 382.600 C 116.598 382.746,117.302 383.025,117.302 383.221 C 117.302 383.417,117.654 383.578,118.084 383.578 C 118.514 383.578,118.866 383.754,118.866 383.969 C 118.866 384.184,119.306 384.360,119.844 384.360 C 120.381 384.360,120.821 384.536,120.821 384.751 C 120.821 384.966,121.173 385.142,121.603 385.142 C 122.033 385.142,122.385 385.318,122.385 385.533 C 122.385 385.748,122.825 385.924,123.363 385.924 C 123.900 385.924,124.340 386.100,124.340 386.315 C 124.340 386.530,124.780 386.706,125.318 386.706 C 125.855 386.706,126.295 386.882,126.295 387.097 C 126.295 387.312,126.637 387.488,127.054 387.488 C 127.472 387.488,127.922 387.664,128.055 387.879 C 128.188 388.094,128.726 388.270,129.251 388.270 C 129.776 388.270,130.205 388.446,130.205 388.661 C 130.205 388.876,130.733 389.052,131.378 389.052 C 132.023 389.052,132.551 389.228,132.551 389.443 C 132.551 389.658,133.065 389.834,133.692 389.834 C 134.319 389.834,134.906 390.054,134.995 390.323 C 135.223 391.005,145.135 390.989,145.362 390.306 C 145.449 390.046,145.774 389.834,146.084 389.834 C 146.792 389.834,150.147 386.517,150.147 385.817 C 150.147 385.532,150.351 385.094,150.600 384.844 C 151.121 384.324,151.169 381.296,151.026 358.260 L 150.929 342.522 148.974 342.522 C 147.898 342.522,147.019 342.698,147.019 342.913 C 147.019 343.128,146.139 343.304,145.064 343.304 C 143.988 343.304,143.109 343.480,143.109 343.695 C 143.109 343.921,141.881 344.086,140.209 344.086 C 138.614 344.086,137.250 344.259,137.178 344.469 C 136.993 345.014,121.233 345.046,120.690 344.502 C 120.461 344.273,119.253 344.086,118.006 344.086 C 116.755 344.086,115.738 343.911,115.738 343.695 C 115.738 343.480,115.034 343.304,114.174 343.304 C 113.314 343.304,112.610 343.128,112.610 342.913 C 112.610 342.698,112.092 342.522,111.460 342.522 C 110.828 342.522,110.201 342.346,110.068 342.131 C 109.936 341.916,109.408 341.740,108.895 341.740 C 108.383 341.740,107.855 341.564,107.722 341.349 C 107.589 341.134,107.051 340.958,106.526 340.958 C 106.001 340.958,105.572 340.782,105.572 340.567 C 105.572 340.352,105.220 340.176,104.790 340.176 C 104.360 340.176,104.008 340.000,104.008 339.785 C 104.008 339.570,103.656 339.394,103.226 339.394 C 102.796 339.394,102.444 339.251,102.444 339.076 C 102.444 338.901,101.828 338.516,101.075 338.221 C 100.323 337.926,99.707 337.562,99.707 337.413 C 99.707 337.265,99.179 336.924,98.534 336.657 C 97.889 336.390,97.361 336.056,97.361 335.916 C 97.361 335.776,96.703 335.314,95.900 334.889 C 94.013 333.890,89.179 329.056,88.181 327.170 C 87.756 326.366,87.272 325.709,87.106 325.709 C 86.939 325.709,86.804 325.478,86.804 325.196 C 86.804 324.914,86.452 324.305,86.022 323.844 C 85.591 323.382,85.239 322.733,85.239 322.401 C 85.239 322.070,85.064 321.799,84.848 321.799 C 84.633 321.799,84.457 321.447,84.457 321.017 C 84.457 320.587,84.282 320.235,84.066 320.235 C 83.851 320.235,83.675 319.795,83.675 319.257 C 83.675 318.719,83.500 318.280,83.284 318.280 C 83.069 318.280,82.893 317.928,82.893 317.498 C 82.893 317.067,82.717 316.716,82.502 316.716 C 82.287 316.716,82.111 316.286,82.111 315.761 C 82.111 315.236,81.935 314.698,81.720 314.565 C 81.505 314.432,81.329 313.982,81.329 313.564 C 81.329 313.147,81.153 312.805,80.938 312.805 C 80.723 312.805,80.547 312.468,80.547 312.056 C 80.547 311.644,80.415 311.248,80.254 311.176 C 79.887 311.013,78.617 308.930,78.327 308.016 C 78.208 307.639,77.955 307.331,77.765 307.331 C 77.575 307.331,77.419 307.018,77.419 306.636 C 77.419 306.253,77.067 305.686,76.637 305.376 C 76.207 305.066,75.855 304.538,75.855 304.203 C 75.855 303.868,75.503 303.340,75.073 303.030 C 74.643 302.720,74.291 302.312,74.291 302.123 C 74.291 301.935,73.763 301.287,73.118 300.684 C 72.473 300.082,71.945 299.396,71.945 299.162 C 71.945 298.364,66.755 292.864,66.002 292.864 C 65.787 292.864,65.119 292.336,64.516 291.691 C 63.913 291.046,63.139 290.518,62.795 290.518 C 62.451 290.518,62.170 290.370,62.170 290.190 C 62.170 289.475,60.159 288.906,59.487 289.431 C 58.918 289.875,58.906 289.856,59.374 289.258 C 60.060 288.383,58.291 286.661,56.989 286.937 C 56.828 286.971,56.696 286.815,56.696 286.589 C 56.696 286.364,56.300 285.792,55.816 285.317 C 54.028 283.564,53.244 280.743,54.545 280.743 C 54.868 280.743,55.132 280.567,55.132 280.352 C 55.132 280.137,55.484 279.961,55.914 279.961 C 56.344 279.961,56.696 279.741,56.695 279.472 C 56.695 279.102,57.829 279.013,61.387 279.104 C 63.974 279.171,66.080 279.390,66.080 279.593 C 66.080 279.795,66.661 279.961,67.370 279.961 C 68.080 279.961,68.828 280.120,69.032 280.314 C 69.237 280.508,69.756 280.753,70.186 280.859 C 70.929 281.042,70.924 281.065,70.088 281.334 C 68.766 281.758,68.830 284.574,70.189 285.755 C 72.200 287.504,75.855 286.694,75.855 284.499 L 75.855 283.506 77.322 284.360 C 78.128 284.830,78.847 285.351,78.918 285.520 C 78.990 285.688,79.310 285.826,79.630 285.826 C 80.197 285.826,81.329 286.719,81.329 287.167 C 81.329 287.289,81.053 287.390,80.715 287.390 C 78.496 287.390,78.242 291.758,80.339 293.855 C 82.570 296.086,86.022 295.620,86.022 293.088 C 86.022 291.483,87.323 292.426,89.101 295.318 C 89.600 296.130,90.276 297.063,90.603 297.390 C 90.930 297.717,91.065 298.108,90.902 298.259 C 90.740 298.410,90.528 298.314,90.432 298.045 C 90.109 297.141,87.257 297.458,86.199 298.516 C 85.203 299.512,84.849 301.961,85.630 302.444 C 85.846 302.577,86.022 302.947,86.022 303.267 C 86.022 304.167,87.837 305.767,88.858 305.767 C 89.362 305.767,89.966 305.959,90.200 306.192 C 90.506 306.499,90.699 306.499,90.888 306.192 C 91.033 305.959,91.492 305.767,91.910 305.767 C 92.408 305.767,92.669 305.499,92.669 304.985 C 92.669 304.555,92.845 304.203,93.060 304.203 C 93.275 304.203,93.451 303.851,93.451 303.421 C 93.451 302.991,93.551 302.639,93.674 302.639 C 94.062 302.639,95.015 303.738,95.015 304.186 C 95.015 304.422,95.762 305.385,96.676 306.327 C 99.955 309.705,101.031 311.241,100.120 311.241 C 99.678 311.241,99.316 311.065,99.316 310.850 C 99.316 310.635,98.974 310.459,98.557 310.459 C 98.139 310.459,97.689 310.635,97.556 310.850 C 97.423 311.065,97.017 311.243,96.653 311.244 C 96.290 311.246,95.772 311.721,95.503 312.300 C 94.918 313.561,94.858 315.543,95.406 315.543 C 95.621 315.543,95.797 315.814,95.797 316.147 C 95.797 316.929,97.538 318.671,98.320 318.671 C 98.653 318.671,98.925 318.847,98.925 319.062 C 98.925 319.703,102.814 319.529,103.485 318.858 C 104.115 318.228,104.084 314.943,103.432 313.392 C 103.140 312.696,103.191 312.706,103.895 313.490 C 104.330 313.974,104.885 314.370,105.129 314.370 C 105.373 314.370,105.572 314.516,105.572 314.694 C 105.572 314.873,106.056 315.269,106.647 315.574 C 109.615 317.106,110.360 317.809,109.501 318.269 C 107.911 319.120,108.867 324.145,110.620 324.145 C 110.854 324.145,111.046 324.321,111.046 324.536 C 111.046 324.762,112.302 324.927,114.031 324.927 C 117.621 324.927,119.075 323.865,118.717 321.505 C 118.544 320.367,118.623 320.235,119.477 320.235 C 120.001 320.235,120.430 320.411,120.430 320.626 C 120.430 320.854,121.849 321.028,123.851 321.043 C 126.604 321.064,127.101 321.152,126.393 321.494 C 125.909 321.727,125.513 322.243,125.513 322.640 C 125.513 323.038,125.337 323.363,125.122 323.363 C 124.907 323.363,124.731 323.891,124.731 324.536 C 124.731 325.181,124.907 325.709,125.122 325.709 C 125.337 325.709,125.513 325.989,125.513 326.332 C 125.513 326.675,125.865 327.047,126.295 327.159 C 126.725 327.272,127.077 327.519,127.077 327.709 C 127.077 327.899,128.485 328.055,130.205 328.055 C 132.030 328.055,133.333 327.892,133.333 327.664 C 133.333 327.449,133.565 327.273,133.847 327.273 C 134.943 327.273,135.712 324.710,135.074 323.182 C 134.756 322.421,134.322 321.799,134.110 321.799 C 133.898 321.799,133.724 321.623,133.724 321.408 C 133.724 321.193,134.252 321.017,134.897 321.017 C 135.543 321.017,136.070 320.841,136.070 320.626 C 136.070 320.411,136.950 320.235,138.025 320.235 C 139.101 320.235,139.980 320.059,139.980 319.844 C 139.980 319.629,140.684 319.453,141.544 319.453 C 142.405 319.453,143.109 319.277,143.109 319.062 C 143.109 318.847,143.636 318.671,144.282 318.671 C 144.927 318.671,145.455 318.495,145.455 318.280 C 145.455 318.065,145.912 317.889,146.471 317.889 C 147.363 317.889,149.062 317.303,150.929 316.352 C 151.309 316.158,151.628 315.104,151.837 313.354 C 152.014 311.869,152.322 310.349,152.521 309.976 C 152.721 309.603,152.884 308.855,152.884 308.314 C 152.884 307.774,153.060 307.331,153.275 307.331 C 153.490 307.331,153.666 306.804,153.666 306.158 C 153.666 305.513,153.842 304.985,154.057 304.985 C 154.272 304.985,154.448 304.457,154.448 303.812 C 154.448 303.167,154.624 302.639,154.839 302.639 C 155.054 302.639,155.230 302.287,155.230 301.857 C 155.230 301.427,155.406 301.075,155.621 301.075 C 155.836 301.075,156.012 300.723,156.012 300.293 C 156.012 299.863,156.188 299.511,156.403 299.511 C 156.618 299.511,156.794 299.247,156.794 298.925 C 156.794 298.602,156.970 298.338,157.185 298.338 C 157.400 298.338,157.576 297.986,157.576 297.556 C 157.576 297.126,157.722 296.774,157.901 296.774 C 158.079 296.774,158.475 296.293,158.780 295.706 C 159.086 295.118,159.819 294.124,160.411 293.497 C 161.002 292.870,161.486 292.187,161.486 291.979 C 161.486 291.771,162.118 291.022,162.890 290.315 C 165.018 288.366,164.642 287.611,161.482 287.482 C 160.086 287.425,158.559 287.181,158.088 286.939 C 157.587 286.683,156.570 286.606,155.638 286.755 C 154.487 286.939,153.778 286.835,153.079 286.376 C 152.458 285.970,151.550 285.796,150.543 285.893 C 149.680 285.975,148.974 285.925,148.974 285.781 C 148.974 285.491,147.184 285.150,143.793 284.795 C 142.556 284.665,141.544 284.404,141.544 284.215 C 141.544 284.026,140.841 283.871,139.980 283.871 C 139.120 283.871,138.416 283.695,138.416 283.480 C 138.416 283.265,137.889 283.089,137.243 283.089 C 136.598 283.089,136.070 282.913,136.070 282.698 C 136.070 282.483,135.455 282.307,134.702 282.307 C 133.949 282.307,133.333 282.131,133.333 281.916 C 133.333 281.701,132.805 281.525,132.160 281.525 C 131.515 281.525,130.987 281.328,130.987 281.088 C 130.987 280.830,130.576 280.730,129.979 280.845 C 129.339 280.967,128.895 280.841,128.764 280.499 C 128.651 280.203,128.235 279.961,127.840 279.961 C 127.446 279.961,127.015 279.785,126.882 279.570 C 126.749 279.355,126.211 279.179,125.686 279.179 C 125.161 279.179,124.731 279.003,124.731 278.788 C 124.731 278.573,124.379 278.397,123.949 278.397 C 123.519 278.397,123.167 278.221,123.167 278.006 C 123.167 277.791,122.639 277.615,121.994 277.615 C 121.349 277.615,120.821 277.472,120.821 277.297 C 120.821 277.122,120.205 276.737,119.453 276.442 C 118.700 276.147,118.084 275.762,118.084 275.587 C 118.084 275.412,117.732 275.269,117.302 275.269 C 116.872 275.269,116.520 275.093,116.520 274.878 C 116.520 274.663,116.168 274.487,115.738 274.487 C 115.308 274.487,114.956 274.311,114.956 274.096 C 114.956 273.881,114.685 273.705,114.353 273.705 C 114.022 273.705,113.373 273.353,112.911 272.923 C 112.449 272.493,111.841 272.141,111.559 272.141 C 111.277 272.141,111.046 271.965,111.046 271.750 C 111.046 271.535,110.694 271.359,110.264 271.359 C 109.834 271.359,109.482 271.213,109.482 271.034 C 109.482 270.855,108.998 270.459,108.407 270.154 C 107.815 269.849,107.118 269.423,106.856 269.208 C 106.595 268.993,106.118 268.597,105.797 268.328 C 105.476 268.060,104.942 267.840,104.611 267.840 C 104.279 267.840,104.008 267.676,104.008 267.477 C 104.008 267.033,103.367 266.387,101.656 265.103 C 99.753 263.675,95.344 259.258,94.239 257.674 C 93.715 256.921,92.795 255.838,92.195 255.268 C 91.595 254.698,91.105 254.109,91.105 253.959 C 91.105 253.809,90.577 253.193,89.932 252.590 C 89.286 251.988,88.759 251.213,88.759 250.870 C 88.759 250.526,88.627 250.244,88.465 250.243 C 88.304 250.243,87.658 249.187,87.029 247.897 C 86.400 246.608,85.740 245.552,85.562 245.552 C 85.385 245.552,85.239 245.200,85.239 244.770 C 85.239 244.340,85.064 243.988,84.848 243.988 C 84.633 243.988,84.457 243.636,84.457 243.206 C 84.457 242.776,84.282 242.424,84.066 242.424 C 83.851 242.424,83.675 242.072,83.675 241.642 C 83.675 241.212,83.500 240.860,83.284 240.860 C 83.069 240.860,82.893 240.508,82.893 240.078 C 82.893 239.648,82.717 239.296,82.502 239.296 C 82.287 239.296,82.111 238.955,82.111 238.537 C 82.111 238.120,81.935 237.670,81.720 237.537 C 81.505 237.404,81.329 236.953,81.329 236.536 C 81.329 236.119,81.153 235.777,80.938 235.777 C 80.723 235.777,80.547 235.348,80.547 234.823 C 80.547 234.298,80.371 233.759,80.156 233.627 C 79.941 233.494,79.765 233.043,79.765 232.626 C 79.765 232.209,79.589 231.867,79.374 231.867 C 79.159 231.867,78.983 231.339,78.983 230.694 C 78.983 230.049,78.807 229.521,78.592 229.521 C 78.377 229.521,78.201 228.916,78.201 228.176 C 78.201 227.436,78.025 226.721,77.810 226.588 C 77.595 226.456,77.419 225.829,77.419 225.197 C 77.419 224.564,77.243 224.047,77.028 224.047 C 76.813 224.047,76.637 223.441,76.637 222.701 C 76.637 221.961,76.461 221.247,76.246 221.114 C 76.031 220.981,75.855 220.091,75.855 219.136 C 75.855 218.181,75.679 217.400,75.464 217.400 C 75.247 217.400,75.073 216.357,75.073 215.054 C 75.073 213.750,74.900 212.708,74.682 212.708 C 74.457 212.708,74.291 211.477,74.291 209.798 C 74.291 208.198,74.115 206.780,73.900 206.647 C 73.674 206.507,73.509 204.362,73.509 201.541 C 73.509 198.559,73.358 196.676,73.118 196.676 C 72.876 196.676,72.727 194.534,72.727 191.030 C 72.727 187.687,72.887 185.285,73.118 185.142 C 73.334 185.008,73.509 183.248,73.509 181.209 C 73.509 179.008,73.667 177.517,73.900 177.517 C 74.115 177.517,74.291 176.637,74.291 175.562 C 74.291 174.487,74.467 173.607,74.682 173.607 C 74.897 173.607,75.073 172.826,75.073 171.871 C 75.073 170.916,75.249 170.025,75.464 169.892 C 75.679 169.760,75.855 169.144,75.855 168.524 C 75.855 167.904,76.048 167.278,76.284 167.132 C 76.519 166.987,76.645 166.292,76.563 165.590 C 76.455 164.666,76.553 164.365,76.917 164.505 C 77.245 164.631,77.419 164.353,77.419 163.701 C 77.419 163.153,77.595 162.596,77.810 162.463 C 78.025 162.330,78.201 161.880,78.201 161.463 C 78.201 161.045,78.397 160.704,78.635 160.704 C 78.898 160.704,79.008 160.182,78.914 159.380 C 78.802 158.417,78.897 158.108,79.263 158.248 C 79.574 158.368,79.765 158.128,79.765 157.618 C 79.765 157.164,79.941 156.794,80.156 156.794 C 80.371 156.794,80.547 156.442,80.547 156.012 C 80.547 155.582,80.691 155.230,80.865 155.230 C 81.040 155.230,81.425 154.614,81.720 153.861 C 82.016 153.109,82.401 152.493,82.575 152.493 C 82.750 152.493,82.893 152.221,82.893 151.890 C 82.893 151.558,83.245 150.909,83.675 150.448 C 84.106 149.986,84.457 149.377,84.457 149.095 C 84.457 148.813,84.633 148.583,84.848 148.583 C 85.064 148.583,85.239 148.231,85.239 147.801 C 85.239 147.370,85.386 147.019,85.564 147.019 C 85.743 147.019,86.139 146.535,86.444 145.943 C 86.749 145.352,87.175 144.654,87.390 144.393 C 87.605 144.131,88.001 143.655,88.270 143.334 C 88.539 143.013,88.759 142.556,88.759 142.318 C 88.759 142.080,89.638 141.028,90.714 139.980 C 91.789 138.933,92.669 137.889,92.669 137.660 C 92.669 137.431,92.845 137.243,93.060 137.243 C 93.275 137.243,93.451 136.540,93.451 135.679 C 93.451 134.819,93.275 134.115,93.060 134.115 C 92.845 134.115,92.669 133.587,92.669 132.942 C 92.669 132.297,92.493 131.769,92.278 131.769 C 92.063 131.769,91.887 131.065,91.887 130.205 C 91.887 129.345,91.711 128.641,91.496 128.641 C 91.281 128.641,91.105 127.849,91.105 126.882 C 91.105 125.914,90.929 125.122,90.714 125.122 C 90.493 125.122,90.323 124.022,90.323 122.604 C 90.323 121.219,90.147 119.977,89.932 119.844 C 89.403 119.517,89.403 106.354,89.932 106.354 C 90.152 106.354,90.323 105.254,90.323 103.835 C 90.323 102.450,90.499 101.208,90.714 101.075 C 90.929 100.942,91.105 99.964,91.105 98.902 C 91.105 97.839,91.281 96.970,91.496 96.970 C 91.711 96.970,91.887 96.178,91.887 95.210 C 91.887 94.242,92.063 93.451,92.278 93.451 C 92.493 93.451,92.669 92.923,92.669 92.278 C 92.669 91.632,92.845 91.105,93.060 91.105 C 93.275 91.105,93.451 90.662,93.451 90.122 C 93.451 89.175,93.574 88.819,94.563 86.907 C 94.811 86.426,95.015 85.753,95.015 85.412 C 95.015 83.962,95.973 83.675,100.829 83.675 C 103.538 83.675,105.628 83.841,105.767 84.066 C 105.900 84.282,106.790 84.457,107.745 84.457 C 108.701 84.457,109.482 84.633,109.482 84.848 C 109.482 85.064,109.999 85.239,110.632 85.239 C 111.264 85.239,111.891 85.415,112.023 85.630 C 112.156 85.846,112.871 86.022,113.611 86.022 C 114.351 86.022,114.956 86.197,114.956 86.413 C 114.956 86.628,115.310 86.804,115.743 86.804 C 116.176 86.804,116.836 86.959,117.210 87.149 C 117.583 87.339,118.328 87.673,118.866 87.891 C 119.404 88.109,120.486 88.570,121.271 88.914 C 122.056 89.259,122.895 89.541,123.134 89.541 C 123.373 89.541,123.918 89.717,124.345 89.932 C 124.773 90.147,125.472 90.499,125.899 90.714 C 126.326 90.929,126.942 91.105,127.267 91.105 C 127.593 91.105,127.859 91.281,127.859 91.496 C 127.859 91.711,128.211 91.887,128.641 91.887 C 129.071 91.887,129.423 92.063,129.423 92.278 C 129.423 92.493,129.775 92.669,130.205 92.669 C 130.635 92.669,130.987 92.845,130.987 93.060 C 130.987 93.275,131.259 93.451,131.590 93.451 C 131.922 93.451,132.571 93.803,133.032 94.233 C 133.494 94.663,134.103 95.015,134.385 95.015 C 134.667 95.015,134.897 95.191,134.897 95.406 C 134.897 95.621,135.249 95.797,135.679 95.797 C 136.109 95.797,136.461 95.973,136.461 96.188 C 136.461 96.403,136.725 96.579,137.048 96.579 C 137.370 96.579,137.634 96.755,137.634 96.970 C 137.634 97.185,137.865 97.361,138.147 97.361 C 138.429 97.361,139.038 97.713,139.499 98.143 C 139.961 98.573,140.610 98.925,140.942 98.925 C 141.273 98.925,141.544 99.079,141.544 99.268 C 141.544 99.457,142.072 99.831,142.717 100.098 C 143.363 100.365,143.891 100.738,143.891 100.927 C 143.891 101.116,144.204 101.271,144.586 101.271 C 144.969 101.271,145.536 101.623,145.846 102.053 C 146.156 102.483,146.642 102.835,146.926 102.835 C 147.210 102.835,147.820 103.187,148.282 103.617 C 149.163 104.438,152.102 104.739,152.102 104.008 C 152.102 103.793,152.707 103.617,153.447 103.617 C 154.187 103.617,154.901 103.441,155.034 103.226 C 155.167 103.011,155.969 102.835,156.817 102.835 C 157.664 102.835,158.358 102.659,158.358 102.444 C 158.358 102.229,159.139 102.053,160.094 102.053 C 161.049 102.053,161.939 101.877,162.072 101.662 C 162.205 101.447,163.095 101.271,164.050 101.271 C 165.005 101.271,165.787 101.095,165.787 100.880 C 165.787 100.665,166.744 100.489,167.914 100.489 C 169.084 100.489,170.151 100.313,170.283 100.098 C 170.416 99.883,171.648 99.707,173.021 99.707 C 174.393 99.707,175.625 99.531,175.758 99.316 C 175.890 99.101,177.298 98.925,178.886 98.925 C 180.473 98.925,181.881 98.749,182.014 98.534 C 182.157 98.302,184.552 98.143,187.879 98.143 C 191.206 98.143,193.601 97.983,193.744 97.752 C 194.067 97.228,205.933 97.228,206.256 97.752 C 206.399 97.983,208.776 98.143,212.066 98.143 C 215.129 98.143,217.802 98.305,218.006 98.504 C 218.210 98.703,219.697 98.963,221.310 99.081 C 227.182 99.511,229.333 99.780,229.697 100.131 C 229.901 100.328,231.001 100.489,232.141 100.489 C 233.281 100.489,234.213 100.665,234.213 100.880 C 234.213 101.095,234.995 101.271,235.950 101.271 C 236.905 101.271,237.795 101.447,237.928 101.662 C 238.061 101.877,238.951 102.053,239.906 102.053 C 240.861 102.053,241.642 102.229,241.642 102.444 C 241.642 102.659,242.336 102.835,243.183 102.835 C 244.031 102.835,244.833 103.011,244.966 103.226 C 245.099 103.441,245.803 103.617,246.530 103.617 C 247.257 103.617,247.961 103.793,248.094 104.008 C 248.545 104.738,251.202 104.459,251.808 103.617 C 252.118 103.187,252.646 102.835,252.981 102.835 C 253.317 102.835,253.844 102.483,254.154 102.053 C 254.464 101.623,255.031 101.271,255.414 101.271 C 255.796 101.271,256.109 101.095,256.109 100.880 C 256.109 100.665,256.340 100.489,256.622 100.489 C 256.904 100.489,257.513 100.137,257.974 99.707 C 258.436 99.277,259.004 98.925,259.238 98.925 C 259.471 98.925,260.039 98.573,260.501 98.143 C 260.962 97.713,261.571 97.361,261.853 97.361 C 262.135 97.361,262.366 97.218,262.366 97.043 C 262.366 96.868,262.981 96.483,263.734 96.188 C 264.487 95.892,265.103 95.508,265.103 95.333 C 265.103 95.158,265.333 95.015,265.615 95.015 C 265.897 95.015,266.506 94.663,266.968 94.233 C 267.429 93.803,268.078 93.451,268.410 93.451 C 268.741 93.451,269.013 93.275,269.013 93.060 C 269.013 92.845,269.365 92.669,269.795 92.669 C 270.225 92.669,270.577 92.493,270.577 92.278 C 270.577 92.063,270.929 91.887,271.359 91.887 C 271.789 91.887,272.141 91.711,272.141 91.496 C 272.141 91.281,272.493 91.105,272.923 91.105 C 273.353 91.105,273.705 90.929,273.705 90.714 C 273.705 90.499,274.134 90.323,274.659 90.323 C 275.184 90.323,275.722 90.147,275.855 89.932 C 275.988 89.717,276.362 89.541,276.685 89.541 C 277.009 89.541,278.236 89.101,279.411 88.563 C 280.586 88.025,281.796 87.586,282.100 87.586 C 282.403 87.586,282.761 87.410,282.893 87.195 C 283.026 86.979,283.565 86.804,284.090 86.804 C 284.614 86.804,285.044 86.628,285.044 86.413 C 285.044 86.197,285.649 86.022,286.389 86.022 C 287.129 86.022,287.844 85.846,287.977 85.630 C 288.109 85.415,288.736 85.239,289.368 85.239 C 290.001 85.239,290.518 85.064,290.518 84.848 C 290.518 84.633,291.299 84.457,292.255 84.457 C 293.210 84.457,294.100 84.282,294.233 84.066 C 294.372 83.841,296.462 83.675,299.171 83.675 C 304.149 83.675,304.985 83.949,304.985 85.579 C 304.985 86.012,305.161 86.475,305.376 86.608 C 305.591 86.741,305.767 87.279,305.767 87.804 C 305.767 88.329,305.943 88.759,306.158 88.759 C 306.373 88.759,306.549 89.286,306.549 89.932 C 306.549 90.577,306.725 91.105,306.940 91.105 C 307.155 91.105,307.331 91.622,307.331 92.255 C 307.331 92.887,307.507 93.513,307.722 93.646 C 307.937 93.779,308.113 94.571,308.113 95.406 C 308.113 96.241,308.289 97.032,308.504 97.165 C 308.719 97.298,308.895 98.188,308.895 99.143 C 308.895 100.098,309.071 100.880,309.286 100.880 C 309.509 100.880,309.677 102.042,309.677 103.584 C 309.677 105.150,309.853 106.347,310.094 106.428 C 310.641 106.610,310.613 119.398,310.065 119.583 C 309.852 119.655,309.677 120.930,309.677 122.418 C 309.677 123.960,309.509 125.122,309.286 125.122 C 309.071 125.122,308.895 125.914,308.895 126.882 C 308.895 127.849,308.719 128.641,308.504 128.641 C 308.289 128.641,308.113 129.345,308.113 130.205 C 308.113 131.065,307.937 131.769,307.722 131.769 C 307.507 131.769,307.331 132.297,307.331 132.942 C 307.331 133.587,307.155 134.115,306.940 134.115 C 306.725 134.115,306.549 134.819,306.549 135.679 C 306.549 136.540,306.725 137.243,306.940 137.243 C 307.155 137.243,307.331 137.431,307.331 137.660 C 307.331 137.889,308.211 138.933,309.286 139.980 C 310.362 141.028,311.241 142.160,311.241 142.497 C 311.241 142.833,311.406 143.109,311.606 143.109 C 311.807 143.109,312.082 143.460,312.219 143.891 C 312.355 144.321,312.714 144.673,313.015 144.673 C 313.316 144.673,313.476 144.899,313.370 145.175 C 313.264 145.451,313.534 146.060,313.969 146.527 C 314.404 146.995,314.761 147.648,314.761 147.980 C 314.761 148.311,314.936 148.583,315.152 148.583 C 315.367 148.583,315.543 148.813,315.543 149.095 C 315.543 149.377,315.894 149.986,316.325 150.448 C 316.755 150.909,317.107 151.558,317.107 151.890 C 317.107 152.221,317.250 152.493,317.425 152.493 C 317.599 152.493,317.984 153.109,318.280 153.861 C 318.575 154.614,318.960 155.230,319.135 155.230 C 319.309 155.230,319.453 155.582,319.453 156.012 C 319.453 156.442,319.629 156.794,319.844 156.794 C 320.059 156.794,320.235 157.146,320.235 157.576 C 320.235 158.006,320.411 158.358,320.626 158.358 C 320.841 158.358,321.017 158.886,321.017 159.531 C 321.017 160.176,321.193 160.704,321.408 160.704 C 321.623 160.704,321.799 161.045,321.799 161.463 C 321.799 161.880,321.975 162.330,322.190 162.463 C 322.405 162.596,322.581 163.134,322.581 163.659 C 322.581 164.184,322.757 164.614,322.972 164.614 C 323.187 164.614,323.363 165.230,323.363 165.982 C 323.363 166.735,323.539 167.351,323.754 167.351 C 323.969 167.351,324.145 167.967,324.145 168.719 C 324.145 169.472,324.321 170.088,324.536 170.088 C 324.751 170.088,324.927 170.880,324.927 171.848 C 324.927 172.815,325.103 173.607,325.318 173.607 C 325.533 173.607,325.709 174.564,325.709 175.734 C 325.709 176.905,325.885 177.971,326.100 178.104 C 326.316 178.237,326.491 179.998,326.491 182.037 C 326.491 184.237,326.649 185.728,326.882 185.728 C 327.121 185.728,327.273 187.545,327.273 190.397 C 327.273 193.088,327.107 195.169,326.882 195.308 C 326.653 195.450,326.491 197.715,326.491 200.782 C 326.491 203.849,326.329 206.114,326.100 206.256 C 325.885 206.389,325.709 207.709,325.709 209.189 C 325.709 210.669,325.530 211.990,325.311 212.125 C 325.093 212.260,324.946 213.272,324.985 214.375 C 325.029 215.611,324.881 216.437,324.600 216.531 C 324.336 216.619,324.145 217.489,324.145 218.605 C 324.145 219.663,323.969 220.528,323.754 220.528 C 323.539 220.528,323.363 221.232,323.363 222.092 C 323.363 222.952,323.187 223.656,322.972 223.656 C 322.757 223.656,322.581 224.272,322.581 225.024 C 322.581 225.777,322.405 226.393,322.190 226.393 C 321.975 226.393,321.799 226.910,321.799 227.543 C 321.799 228.175,321.623 228.802,321.408 228.935 C 321.193 229.067,321.017 229.782,321.017 230.522 C 321.017 231.262,320.841 231.867,320.626 231.867 C 320.411 231.867,320.235 232.219,320.235 232.649 C 320.235 233.079,320.059 233.431,319.844 233.431 C 319.629 233.431,319.453 233.959,319.453 234.604 C 319.453 235.249,319.277 235.777,319.062 235.777 C 318.847 235.777,318.671 236.129,318.671 236.559 C 318.671 236.989,318.495 237.341,318.280 237.341 C 318.065 237.341,317.889 237.781,317.889 238.319 C 317.889 238.856,317.713 239.296,317.498 239.296 C 317.283 239.296,317.107 239.648,317.107 240.078 C 317.107 240.508,316.931 240.860,316.716 240.860 C 316.500 240.860,316.325 241.212,316.325 241.642 C 316.325 242.072,316.149 242.424,315.934 242.424 C 315.718 242.424,315.543 242.776,315.543 243.206 C 315.543 243.636,315.367 243.988,315.152 243.988 C 314.936 243.988,314.761 244.340,314.761 244.770 C 314.761 245.200,314.615 245.552,314.438 245.552 C 314.260 245.552,313.600 246.608,312.971 247.897 C 312.342 249.187,311.696 250.243,311.535 250.243 C 311.373 250.244,311.241 250.526,311.241 250.870 C 311.241 251.213,310.714 251.988,310.068 252.590 C 309.423 253.193,308.895 253.787,308.895 253.911 C 308.895 254.035,308.016 255.058,306.940 256.186 C 305.865 257.313,304.985 258.383,304.985 258.563 C 304.985 258.979,300.847 263.031,299.105 264.321 C 298.379 264.858,297.251 265.870,296.598 266.569 C 295.945 267.268,295.190 267.840,294.920 267.840 C 294.649 267.840,294.428 267.989,294.428 268.171 C 294.428 268.354,293.724 268.820,292.864 269.208 C 292.004 269.596,291.300 270.151,291.300 270.441 C 291.300 270.731,291.168 270.933,291.007 270.890 C 290.473 270.749,288.954 271.405,288.954 271.776 C 288.954 271.977,288.602 272.141,288.172 272.141 C 287.742 272.141,287.390 272.317,287.390 272.532 C 287.390 272.747,287.159 272.923,286.877 272.923 C 286.595 272.923,285.987 273.275,285.525 273.705 C 285.063 274.135,284.414 274.487,284.083 274.487 C 283.751 274.487,283.480 274.663,283.480 274.878 C 283.480 275.093,283.128 275.269,282.698 275.269 C 282.268 275.269,281.915 275.401,281.913 275.562 C 281.909 275.959,279.975 276.833,279.101 276.833 C 278.714 276.833,278.397 277.009,278.397 277.224 C 278.397 277.439,278.045 277.615,277.615 277.615 C 277.185 277.615,276.833 277.791,276.833 278.006 C 276.833 278.221,276.491 278.397,276.074 278.397 C 275.656 278.397,275.206 278.573,275.073 278.788 C 274.940 279.003,274.402 279.179,273.877 279.179 C 273.352 279.179,272.923 279.355,272.923 279.570 C 272.923 279.785,272.395 279.961,271.750 279.961 C 271.105 279.961,270.577 280.137,270.577 280.352 C 270.577 280.567,270.147 280.743,269.622 280.743 C 269.097 280.743,268.559 280.919,268.426 281.134 C 268.293 281.349,267.765 281.525,267.253 281.525 C 266.741 281.525,266.213 281.701,266.080 281.916 C 265.947 282.131,265.409 282.307,264.884 282.307 C 264.359 282.307,263.930 282.483,263.930 282.698 C 263.930 282.913,263.226 283.089,262.366 283.089 C 261.505 283.089,260.802 283.265,260.802 283.480 C 260.802 283.695,260.098 283.871,259.238 283.871 C 258.377 283.871,257.674 284.026,257.674 284.215 C 257.674 284.404,256.662 284.665,255.425 284.795 C 252.068 285.147,250.244 285.491,250.245 285.771 C 250.245 285.909,249.393 285.962,248.351 285.890 C 247.024 285.798,246.276 285.940,245.853 286.363 C 245.441 286.775,244.519 286.963,242.957 286.953 C 235.774 286.907,234.381 287.740,236.959 290.539 C 237.840 291.495,239.078 292.844,239.710 293.537 C 240.343 294.230,240.860 295.027,240.860 295.308 C 240.860 295.589,241.212 296.073,241.642 296.383 C 242.072 296.693,242.424 297.260,242.424 297.643 C 242.424 298.025,242.556 298.339,242.717 298.340 C 242.879 298.340,243.451 299.307,243.988 300.489 C 244.526 301.670,245.098 302.637,245.259 302.638 C 245.420 302.639,245.552 303.167,245.552 303.812 C 245.552 304.457,245.728 304.985,245.943 304.985 C 246.158 304.985,246.334 305.513,246.334 306.158 C 246.334 306.804,246.510 307.331,246.725 307.331 C 246.940 307.331,247.116 308.021,247.116 308.863 C 247.116 309.705,247.271 310.453,247.460 310.525 C 247.649 310.596,247.986 312.747,248.208 315.303 C 248.431 317.860,248.808 320.072,249.046 320.219 C 249.633 320.582,249.670 374.320,249.083 374.515 C 248.588 374.680,248.534 381.232,249.027 381.232 C 249.218 381.232,249.450 381.750,249.543 382.384 C 249.636 383.018,249.568 383.447,249.392 383.338 C 249.215 383.230,249.071 383.492,249.071 383.923 C 249.071 384.353,249.247 384.813,249.462 384.946 C 249.677 385.079,249.853 385.446,249.853 385.762 C 249.853 386.502,253.177 389.834,253.916 389.834 C 254.226 389.834,254.554 390.054,254.643 390.323 C 254.875 391.017,264.775 391.012,265.006 390.318 C 265.095 390.052,265.681 389.834,266.308 389.834 C 266.935 389.834,267.449 389.658,267.449 389.443 C 267.449 389.228,267.977 389.052,268.622 389.052 C 269.267 389.052,269.795 388.876,269.795 388.661 C 269.795 388.446,270.224 388.270,270.749 388.270 C 271.274 388.270,271.812 388.094,271.945 387.879 C 272.078 387.664,272.528 387.488,272.946 387.488 C 273.363 387.488,273.705 387.312,273.705 387.097 C 273.705 386.882,274.134 386.706,274.659 386.706 C 275.184 386.706,275.722 386.530,275.855 386.315 C 275.988 386.100,276.439 385.924,276.856 385.924 C 277.273 385.924,277.615 385.748,277.615 385.533 C 277.615 385.318,277.956 385.142,278.374 385.142 C 278.791 385.142,279.241 384.966,279.374 384.751 C 279.507 384.536,279.958 384.360,280.375 384.360 C 280.792 384.360,281.134 384.184,281.134 383.969 C 281.134 383.754,281.486 383.578,281.916 383.578 C 282.346 383.578,282.698 383.417,282.698 383.221 C 282.698 383.025,283.402 382.746,284.262 382.600 C 285.122 382.455,285.826 382.175,285.826 381.979 C 285.826 381.783,286.178 381.623,286.608 381.623 C 287.038 381.623,287.390 381.447,287.390 381.232 C 287.390 381.017,287.742 380.841,288.172 380.841 C 288.602 380.841,288.954 380.665,288.954 380.450 C 288.954 380.235,289.306 380.059,289.736 380.059 C 290.166 380.059,290.518 379.883,290.518 379.668 C 290.518 379.453,290.870 379.277,291.300 379.277 C 291.730 379.277,292.082 379.101,292.082 378.886 C 292.082 378.671,292.434 378.495,292.864 378.495 C 293.294 378.495,293.646 378.352,293.646 378.177 C 293.646 378.002,294.262 377.617,295.015 377.322 C 295.767 377.026,296.383 376.642,296.383 376.467 C 296.383 376.292,296.735 376.149,297.165 376.149 C 297.595 376.149,297.947 375.973,297.947 375.758 C 297.947 375.543,298.260 375.367,298.643 375.367 C 299.026 375.367,299.592 375.015,299.902 374.585 C 300.212 374.154,300.779 373.803,301.162 373.803 C 301.544 373.803,301.857 373.627,301.857 373.412 C 301.857 373.196,302.129 373.021,302.460 373.021 C 302.792 373.021,303.441 372.669,303.902 372.239 C 304.364 371.808,304.973 371.457,305.255 371.457 C 305.537 371.457,305.767 371.281,305.767 371.065 C 305.767 370.850,306.080 370.674,306.463 370.674 C 306.846 370.674,307.412 370.323,307.722 369.892 C 308.032 369.462,308.534 369.110,308.838 369.110 C 309.142 369.110,309.677 368.803,310.028 368.426 C 310.735 367.667,311.592 367.103,313.490 366.144 C 314.189 365.791,314.761 365.358,314.761 365.182 C 314.761 365.006,315.118 364.749,315.555 364.610 C 315.992 364.471,316.776 363.931,317.297 363.411 C 317.818 362.890,318.445 362.463,318.691 362.463 C 318.938 362.463,319.632 361.935,320.235 361.290 C 320.837 360.645,321.541 360.117,321.799 360.117 C 322.056 360.117,322.733 359.618,323.304 359.009 C 323.874 358.399,324.544 357.827,324.793 357.738 C 325.279 357.564,328.137 355.140,331.207 352.297 C 332.252 351.329,333.340 350.362,333.625 350.147 C 336.148 348.239,338.889 345.769,341.349 343.186 C 342.962 341.493,345.381 338.959,346.725 337.555 C 348.069 336.151,349.169 334.759,349.169 334.461 C 349.169 334.163,349.346 333.920,349.562 333.920 C 350.051 333.920,353.861 330.064,353.861 329.569 C 353.861 329.370,354.653 328.415,355.621 327.448 C 356.588 326.480,357.380 325.525,357.380 325.325 C 357.380 325.126,357.802 324.540,358.318 324.025 C 358.834 323.509,359.564 322.489,359.940 321.758 C 360.316 321.028,360.950 320.146,361.348 319.798 C 361.746 319.450,362.072 318.890,362.072 318.553 C 362.072 318.217,362.424 317.830,362.854 317.693 C 363.284 317.557,363.636 317.193,363.636 316.885 C 363.636 316.577,363.812 316.325,364.027 316.325 C 364.242 316.325,364.418 316.099,364.418 315.824 C 364.418 315.549,364.770 315.071,365.200 314.761 C 365.630 314.451,365.982 313.923,365.982 313.587 C 365.982 313.252,366.334 312.724,366.764 312.414 C 367.195 312.104,367.546 311.577,367.546 311.241 C 367.546 310.906,367.898 310.378,368.328 310.068 C 368.759 309.758,369.110 309.272,369.110 308.988 C 369.110 308.704,369.462 308.094,369.892 307.632 C 370.323 307.171,370.674 306.562,370.674 306.280 C 370.674 305.998,370.850 305.767,371.065 305.767 C 371.281 305.767,371.457 305.496,371.457 305.164 C 371.457 304.833,371.808 304.184,372.239 303.722 C 372.669 303.261,373.021 302.652,373.021 302.370 C 373.021 302.088,373.196 301.857,373.412 301.857 C 373.627 301.857,373.803 301.703,373.803 301.514 C 373.803 301.325,374.418 300.147,375.171 298.897 C 375.924 297.647,376.540 296.306,376.540 295.917 C 376.540 295.528,376.716 295.210,376.931 295.210 C 377.146 295.210,377.322 294.858,377.322 294.428 C 377.322 293.998,377.498 293.646,377.713 293.646 C 377.928 293.646,378.104 293.294,378.104 292.864 C 378.104 292.434,378.280 292.082,378.495 292.082 C 378.710 292.082,378.886 291.730,378.886 291.300 C 378.886 290.870,379.062 290.518,379.277 290.518 C 379.492 290.518,379.668 290.166,379.668 289.736 C 379.668 289.306,379.844 288.954,380.059 288.954 C 380.274 288.954,380.450 288.602,380.450 288.172 C 380.450 287.742,380.626 287.390,380.841 287.390 C 381.056 287.390,381.232 287.053,381.232 286.641 C 381.232 286.228,381.364 285.833,381.525 285.761 C 381.947 285.573,383.578 282.335,383.578 281.683 C 383.578 281.381,383.754 281.134,383.969 281.134 C 384.184 281.134,384.360 280.694,384.360 280.156 C 384.360 279.619,384.536 279.179,384.751 279.179 C 384.966 279.179,385.142 278.827,385.142 278.397 C 385.142 277.967,385.318 277.615,385.533 277.615 C 385.748 277.615,385.924 277.185,385.924 276.660 C 385.924 276.135,386.100 275.597,386.315 275.464 C 386.530 275.331,386.706 274.881,386.706 274.464 C 386.706 274.046,386.882 273.705,387.097 273.705 C 387.312 273.705,387.488 273.177,387.488 272.532 C 387.488 271.887,387.664 271.359,387.879 271.359 C 388.094 271.359,388.270 271.017,388.270 270.600 C 388.270 270.182,388.446 269.732,388.661 269.599 C 388.876 269.466,389.052 268.928,389.052 268.403 C 389.052 267.878,389.228 267.449,389.443 267.449 C 389.658 267.449,389.834 267.019,389.834 266.494 C 389.834 265.969,390.010 265.431,390.225 265.298 C 390.440 265.165,390.616 264.713,390.616 264.292 C 390.616 263.872,390.776 263.222,390.971 262.849 C 391.644 261.561,392.571 257.971,392.571 256.651 C 392.571 255.923,392.747 255.327,392.962 255.327 C 393.177 255.327,393.353 254.810,393.353 254.178 C 393.353 253.545,393.529 252.919,393.744 252.786 C 393.959 252.653,394.135 252.037,394.135 251.417 C 394.135 250.798,394.311 250.182,394.526 250.049 C 394.741 249.916,394.917 249.114,394.917 248.266 C 394.917 247.419,395.093 246.725,395.308 246.725 C 395.523 246.725,395.699 245.934,395.699 244.966 C 395.699 243.998,395.875 243.206,396.090 243.206 C 396.305 243.206,396.481 242.326,396.481 241.251 C 396.481 240.176,396.657 239.296,396.872 239.296 C 397.087 239.296,397.263 238.416,397.263 237.341 C 397.263 236.266,397.439 235.386,397.654 235.386 C 397.869 235.386,398.045 234.429,398.045 233.259 C 398.045 232.089,398.221 231.022,398.436 230.890 C 398.651 230.757,398.827 229.550,398.827 228.208 C 398.827 226.777,399.029 225.565,399.316 225.279 C 400.030 224.564,400.030 175.507,399.316 175.269 C 398.983 175.158,398.827 174.178,398.827 172.206 C 398.827 170.533,398.661 169.306,398.436 169.306 C 398.219 169.306,398.045 168.263,398.045 166.960 C 398.045 165.657,397.871 164.614,397.654 164.614 C 397.439 164.614,397.263 163.734,397.263 162.659 C 397.263 161.584,397.087 160.704,396.872 160.704 C 396.657 160.704,396.481 159.934,396.481 158.992 C 396.481 158.045,396.249 157.088,395.961 156.849 C 395.653 156.594,395.512 155.936,395.614 155.237 C 395.719 154.527,395.614 154.057,395.352 154.057 C 395.098 154.057,394.917 153.335,394.917 152.320 C 394.917 151.365,394.741 150.475,394.526 150.342 C 394.311 150.209,394.135 149.583,394.135 148.951 C 394.135 148.318,393.959 147.801,393.744 147.801 C 393.529 147.801,393.353 147.097,393.353 146.237 C 393.353 145.376,393.201 144.673,393.015 144.673 C 392.829 144.673,392.566 143.862,392.430 142.872 C 392.201 141.196,390.883 136.623,390.246 135.288 C 390.091 134.966,389.721 133.866,389.423 132.845 C 389.125 131.823,388.744 130.987,388.575 130.987 C 388.407 130.987,388.270 130.459,388.270 129.814 C 388.270 129.169,388.094 128.641,387.879 128.641 C 387.664 128.641,387.488 128.212,387.488 127.687 C 387.488 127.162,387.312 126.624,387.097 126.491 C 386.882 126.358,386.706 125.908,386.706 125.490 C 386.706 125.073,386.530 124.731,386.315 124.731 C 386.100 124.731,385.924 124.291,385.924 123.754 C 385.924 123.216,385.748 122.776,385.533 122.776 C 385.318 122.776,385.142 122.424,385.142 121.994 C 385.142 121.564,384.966 121.212,384.751 121.212 C 384.536 121.212,384.360 120.860,384.360 120.430 C 384.360 120.000,384.184 119.648,383.969 119.648 C 383.754 119.648,383.578 119.120,383.578 118.475 C 383.578 117.830,383.402 117.302,383.187 117.302 C 382.972 117.302,382.796 116.950,382.796 116.520 C 382.796 116.090,382.620 115.738,382.405 115.738 C 382.190 115.738,382.014 115.386,382.014 114.956 C 382.014 114.526,381.838 114.174,381.623 114.174 C 381.408 114.174,381.232 113.822,381.232 113.392 C 381.232 112.962,381.056 112.610,380.841 112.610 C 380.626 112.610,380.450 112.258,380.450 111.828 C 380.450 111.398,380.274 111.046,380.059 111.046 C 379.844 111.046,379.668 110.694,379.668 110.264 C 379.668 109.834,379.492 109.482,379.277 109.482 C 379.062 109.482,378.886 109.130,378.886 108.700 C 378.886 108.270,378.743 107.918,378.568 107.918 C 378.393 107.918,378.008 107.302,377.713 106.549 C 377.417 105.797,377.033 105.181,376.858 105.181 C 376.683 105.181,376.540 104.900,376.540 104.557 C 376.540 103.867,375.340 101.541,374.878 101.336 C 374.717 101.264,374.585 100.868,374.585 100.456 C 374.585 100.044,374.409 99.707,374.194 99.707 C 373.978 99.707,373.803 99.476,373.803 99.194 C 373.803 98.912,373.451 98.303,373.021 97.842 C 372.590 97.380,372.239 96.731,372.239 96.400 C 372.239 96.068,372.063 95.797,371.848 95.797 C 371.632 95.797,371.457 95.566,371.457 95.284 C 371.457 95.002,371.149 94.430,370.772 94.013 C 370.396 93.596,369.840 92.774,369.537 92.186 C 369.233 91.599,368.662 90.770,368.266 90.346 C 367.870 89.921,367.546 89.434,367.546 89.264 C 367.545 89.093,367.018 88.338,366.373 87.586 C 365.729 86.833,365.202 86.036,365.201 85.815 C 365.201 85.593,364.848 85.158,364.418 84.848 C 363.988 84.538,363.636 84.011,363.636 83.675 C 363.636 83.340,363.284 82.812,362.854 82.502 C 362.424 82.192,362.072 81.714,362.072 81.439 C 362.072 81.164,361.896 80.938,361.681 80.938 C 361.466 80.938,361.290 80.755,361.290 80.531 C 361.290 80.307,361.116 79.911,360.902 79.651 C 360.689 79.391,359.589 77.967,358.458 76.485 C 357.328 75.003,355.655 73.029,354.741 72.097 C 353.827 71.164,353.079 70.218,353.079 69.994 C 353.079 69.770,351.804 68.303,350.244 66.735 C 348.685 65.166,346.970 63.295,346.432 62.575 C 345.156 60.869,337.437 53.177,337.000 53.177 C 336.814 53.177,335.242 51.769,333.505 50.049 C 331.768 48.328,330.188 46.921,329.993 46.921 C 329.799 46.921,328.865 46.173,327.918 45.259 C 325.697 43.115,323.123 41.056,322.665 41.056 C 322.467 41.056,321.753 40.528,321.078 39.883 C 320.403 39.238,319.699 38.710,319.514 38.710 C 319.329 38.710,318.625 38.182,317.950 37.537 C 317.275 36.891,316.496 36.364,316.219 36.364 C 315.942 36.364,315.462 36.012,315.152 35.582 C 314.842 35.152,314.314 34.800,313.978 34.800 C 313.643 34.800,313.115 34.448,312.805 34.018 C 312.495 33.587,312.017 33.236,311.742 33.236 C 311.467 33.236,311.241 33.089,311.241 32.911 C 311.241 32.732,310.758 32.337,310.166 32.034 C 309.575 31.730,308.806 31.172,308.459 30.794 C 308.111 30.417,307.620 30.108,307.367 30.108 C 307.114 30.108,306.530 29.756,306.068 29.326 C 305.607 28.895,304.998 28.543,304.716 28.543 C 304.434 28.543,304.203 28.368,304.203 28.152 C 304.203 27.937,303.851 27.761,303.421 27.761 C 302.991 27.761,302.639 27.597,302.639 27.397 C 302.639 27.026,301.120 26.370,300.587 26.511 C 300.425 26.554,300.293 26.412,300.293 26.196 C 300.293 25.980,299.413 25.419,298.338 24.950 C 297.263 24.480,296.383 23.953,296.383 23.778 C 296.383 23.603,296.031 23.460,295.601 23.460 C 295.171 23.460,294.819 23.284,294.819 23.069 C 294.819 22.854,294.555 22.678,294.233 22.678 C 293.910 22.678,293.646 22.502,293.646 22.287 C 293.646 22.072,293.294 21.896,292.864 21.896 C 292.434 21.896,292.082 21.720,292.082 21.505 C 292.082 21.290,291.730 21.114,291.300 21.114 C 290.870 21.114,290.518 20.938,290.518 20.723 C 290.518 20.508,290.166 20.332,289.736 20.332 C 289.306 20.332,288.954 20.156,288.954 19.941 C 288.954 19.726,288.602 19.550,288.172 19.550 C 287.742 19.550,287.390 19.374,287.390 19.159 C 287.390 18.944,287.038 18.768,286.608 18.768 C 286.178 18.768,285.826 18.592,285.826 18.377 C 285.826 18.162,285.474 17.986,285.044 17.986 C 284.614 17.986,284.262 17.810,284.262 17.595 C 284.262 17.380,283.832 17.204,283.308 17.204 C 282.783 17.204,282.244 17.028,282.111 16.813 C 281.979 16.598,281.528 16.422,281.111 16.422 C 280.693 16.422,280.352 16.246,280.352 16.031 C 280.352 15.816,280.000 15.640,279.570 15.640 C 279.140 15.640,278.788 15.464,278.788 15.249 C 278.788 15.034,278.446 14.858,278.029 14.858 C 277.612 14.858,277.161 14.682,277.028 14.467 C 276.895 14.252,276.445 14.076,276.028 14.076 C 275.610 14.076,275.269 13.900,275.269 13.685 C 275.269 13.470,274.839 13.294,274.314 13.294 C 273.789 13.294,273.251 13.118,273.118 12.903 C 272.985 12.688,272.535 12.512,272.118 12.512 C 271.700 12.512,271.359 12.336,271.359 12.121 C 271.359 11.906,270.831 11.730,270.186 11.730 C 269.541 11.730,269.013 11.554,269.013 11.339 C 269.013 11.124,268.608 10.948,268.113 10.948 C 267.619 10.948,267.047 10.808,266.843 10.637 C 266.256 10.146,263.503 9.290,263.267 9.525 C 263.150 9.642,262.812 9.495,262.515 9.198 C 262.218 8.901,261.007 8.538,259.824 8.390 C 258.641 8.242,257.674 7.965,257.674 7.775 C 257.674 7.585,257.146 7.429,256.500 7.429 C 255.855 7.429,255.327 7.253,255.327 7.038 C 255.327 6.823,254.624 6.647,253.763 6.647 C 252.903 6.647,252.199 6.471,252.199 6.256 C 252.199 6.041,251.496 5.865,250.635 5.865 C 249.775 5.865,249.071 5.689,249.071 5.474 C 249.071 5.259,248.466 5.083,247.726 5.083 C 246.986 5.083,246.272 4.907,246.139 4.692 C 246.006 4.477,245.214 4.301,244.379 4.301 C 243.544 4.301,242.753 4.125,242.620 3.910 C 242.487 3.695,241.695 3.519,240.860 3.519 C 240.025 3.519,239.234 3.343,239.101 3.128 C 238.968 2.913,237.902 2.737,236.732 2.737 C 235.561 2.737,234.604 2.561,234.604 2.346 C 234.604 2.131,233.647 1.955,232.477 1.955 C 231.307 1.955,230.240 1.779,230.108 1.564 C 229.975 1.349,228.655 1.173,227.175 1.173 C 225.695 1.173,224.370 0.988,224.230 0.763 C 224.091 0.537,222.629 0.337,220.981 0.319 C 197.685 0.058,183.488 0.025,183.283 0.229 M145.161 320.898 C 144.462 320.990,143.891 321.210,143.891 321.387 C 143.891 321.563,143.539 321.799,143.109 321.912 C 142.678 322.024,142.326 322.397,142.326 322.740 C 142.326 323.082,142.151 323.363,141.935 323.363 C 141.108 323.363,141.528 326.119,142.504 327.095 C 144.031 328.622,148.786 328.518,150.496 326.920 C 153.961 323.684,150.826 320.146,145.161 320.898 " stroke="none" fill="#141414" fill-rule="evenodd"></path><path id="path1" d="M243.695 286.878 C 244.071 286.976,244.687 286.976,245.064 286.878 C 245.440 286.779,245.132 286.699,244.379 286.699 C 243.627 286.699,243.319 286.779,243.695 286.878 M249.238 347.410 C 249.237 365.681,249.307 370.491,249.447 361.877 C 249.563 354.780,249.564 342.463,249.449 334.506 C 249.294 323.823,249.239 327.198,249.238 347.410 M249.071 382.186 C 249.071 382.711,249.215 383.230,249.392 383.338 C 249.568 383.447,249.636 383.018,249.543 382.384 C 249.338 380.987,249.071 380.875,249.071 382.186 " stroke="none" fill="#181414" fill-rule="evenodd"></path><path id="path2" d="M243.695 286.878 C 244.071 286.976,244.687 286.976,245.064 286.878 C 245.440 286.779,245.132 286.699,244.379 286.699 C 243.627 286.699,243.319 286.779,243.695 286.878 M249.238 347.410 C 249.237 365.681,249.307 370.491,249.447 361.877 C 249.563 354.780,249.564 342.463,249.449 334.506 C 249.294 323.823,249.239 327.198,249.238 347.410 M249.071 382.186 C 249.071 382.711,249.215 383.230,249.392 383.338 C 249.568 383.447,249.636 383.018,249.543 382.384 C 249.338 380.987,249.071 380.875,249.071 382.186 " stroke="none" fill="#181414" fill-rule="evenodd"></path><path id="path3" d="M243.695 286.878 C 244.071 286.976,244.687 286.976,245.064 286.878 C 245.440 286.779,245.132 286.699,244.379 286.699 C 243.627 286.699,243.319 286.779,243.695 286.878 M249.238 347.410 C 249.237 365.681,249.307 370.491,249.447 361.877 C 249.563 354.780,249.564 342.463,249.449 334.506 C 249.294 323.823,249.239 327.198,249.238 347.410 M249.071 382.186 C 249.071 382.711,249.215 383.230,249.392 383.338 C 249.568 383.447,249.636 383.018,249.543 382.384 C 249.338 380.987,249.071 380.875,249.071 382.186 " stroke="none" fill="#181414" fill-rule="evenodd"></path><path id="path4" d="M243.695 286.878 C 244.071 286.976,244.687 286.976,245.064 286.878 C 245.440 286.779,245.132 286.699,244.379 286.699 C 243.627 286.699,243.319 286.779,243.695 286.878 M249.238 347.410 C 249.237 365.681,249.307 370.491,249.447 361.877 C 249.563 354.780,249.564 342.463,249.449 334.506 C 249.294 323.823,249.239 327.198,249.238 347.410 M249.071 382.186 C 249.071 382.711,249.215 383.230,249.392 383.338 C 249.568 383.447,249.636 383.018,249.543 382.384 C 249.338 380.987,249.071 380.875,249.071 382.186 " stroke="none" fill="#181414" fill-rule="evenodd"></path></g></svg>