<svg id="svg" version="1.1" xmlns="http://www.w3.org/2000/svg" xmlns:xlink="http://www.w3.org/1999/xlink" width="400" height="400" viewBox="0, 0, 400,400"><g id="svgg"><path id="path0" d="M192.000 23.600 C 192.000 23.844,190.133 24.000,187.200 24.000 C 184.267 24.000,182.400 24.156,182.400 24.400 C 182.400 24.623,181.291 24.806,179.900 24.813 C 177.542 24.825,174.364 25.206,169.800 26.021 C 168.700 26.218,167.080 26.485,166.200 26.614 C 165.320 26.744,164.240 27.006,163.800 27.198 C 163.360 27.389,162.460 27.637,161.800 27.748 C 161.140 27.860,159.790 28.155,158.800 28.404 C 157.810 28.654,156.415 28.954,155.700 29.073 C 154.985 29.191,154.400 29.448,154.400 29.644 C 154.400 29.840,153.680 30.000,152.800 30.000 C 151.920 30.000,151.200 30.180,151.200 30.400 C 151.200 30.620,150.660 30.800,150.000 30.800 C 149.340 30.800,148.800 30.980,148.800 31.200 C 148.800 31.420,148.260 31.600,147.600 31.600 C 146.940 31.600,146.400 31.780,146.400 32.000 C 146.400 32.220,145.961 32.400,145.424 32.400 C 144.887 32.400,144.336 32.580,144.200 32.800 C 144.064 33.020,143.513 33.200,142.976 33.200 C 142.439 33.200,142.000 33.380,142.000 33.600 C 142.000 33.820,141.561 34.000,141.024 34.000 C 140.487 34.000,139.936 34.180,139.800 34.400 C 139.664 34.620,139.203 34.800,138.776 34.800 C 138.349 34.800,138.000 34.980,138.000 35.200 C 138.000 35.420,137.460 35.600,136.800 35.600 C 136.140 35.600,135.600 35.780,135.600 36.000 C 135.600 36.220,135.240 36.400,134.800 36.400 C 134.360 36.400,134.000 36.580,134.000 36.800 C 134.000 37.020,133.460 37.200,132.800 37.200 C 132.140 37.200,131.600 37.380,131.600 37.600 C 131.600 37.820,131.240 38.000,130.800 38.000 C 130.360 38.000,130.000 38.180,130.000 38.400 C 130.000 38.620,129.640 38.800,129.200 38.800 C 128.760 38.800,128.400 38.980,128.400 39.200 C 128.400 39.420,128.051 39.600,127.624 39.600 C 127.197 39.600,126.736 39.780,126.600 40.000 C 126.464 40.220,126.003 40.400,125.576 40.400 C 125.149 40.400,124.800 40.580,124.800 40.800 C 124.800 41.020,124.440 41.200,124.000 41.200 C 123.560 41.200,123.200 41.380,123.200 41.600 C 123.200 41.820,122.936 42.000,122.614 42.000 C 121.801 42.000,119.200 43.276,119.200 43.674 C 119.200 43.853,118.840 44.000,118.400 44.000 C 117.960 44.000,117.600 44.180,117.600 44.400 C 117.600 44.620,117.240 44.800,116.800 44.800 C 116.360 44.800,116.000 44.980,116.000 45.200 C 116.000 45.420,115.640 45.600,115.200 45.600 C 114.760 45.600,114.400 45.780,114.400 46.000 C 114.400 46.220,114.164 46.400,113.875 46.400 C 113.587 46.400,112.964 46.760,112.492 47.200 C 112.020 47.640,111.356 48.000,111.017 48.000 C 110.678 48.000,110.400 48.180,110.400 48.400 C 110.400 48.620,110.170 48.800,109.888 48.800 C 109.607 48.800,109.117 49.160,108.800 49.600 C 108.483 50.040,107.903 50.400,107.512 50.400 C 107.120 50.400,106.800 50.580,106.800 50.800 C 106.800 51.020,106.564 51.200,106.275 51.200 C 105.987 51.200,105.364 51.560,104.892 52.000 C 104.420 52.440,103.796 52.800,103.505 52.800 C 103.214 52.800,102.717 53.160,102.400 53.600 C 102.083 54.040,101.575 54.400,101.272 54.400 C 100.969 54.400,100.217 54.940,99.600 55.600 C 98.983 56.260,98.231 56.800,97.928 56.800 C 97.625 56.800,97.117 57.160,96.800 57.600 C 96.483 58.040,96.056 58.400,95.851 58.400 C 95.353 58.400,92.347 60.639,90.347 62.500 C 89.460 63.325,88.584 64.000,88.399 64.000 C 88.214 64.000,86.858 65.170,85.385 66.600 C 83.912 68.030,82.548 69.200,82.353 69.200 C 81.863 69.200,70.414 80.694,69.198 82.408 C 68.654 83.173,67.262 84.749,66.105 85.909 C 64.947 87.068,64.000 88.187,64.000 88.395 C 64.000 88.603,63.370 89.403,62.600 90.173 C 61.830 90.943,61.200 91.686,61.200 91.823 C 61.200 91.960,60.570 92.809,59.800 93.708 C 59.030 94.608,58.400 95.542,58.400 95.784 C 58.400 96.026,58.040 96.483,57.600 96.800 C 57.160 97.117,56.800 97.625,56.800 97.928 C 56.800 98.231,56.260 98.983,55.600 99.600 C 54.940 100.217,54.400 100.969,54.400 101.272 C 54.400 101.575,54.040 102.083,53.600 102.400 C 53.160 102.717,52.800 103.214,52.800 103.505 C 52.800 103.796,52.440 104.420,52.000 104.892 C 51.560 105.364,51.200 105.987,51.200 106.275 C 51.200 106.564,51.020 106.800,50.800 106.800 C 50.580 106.800,50.400 107.120,50.400 107.512 C 50.400 107.903,50.040 108.483,49.600 108.800 C 49.160 109.117,48.800 109.607,48.800 109.888 C 48.800 110.170,48.620 110.400,48.400 110.400 C 48.180 110.400,48.000 110.678,48.000 111.017 C 48.000 111.356,47.640 112.020,47.200 112.492 C 46.760 112.964,46.400 113.587,46.400 113.875 C 46.400 114.164,46.220 114.400,46.000 114.400 C 45.780 114.400,45.600 114.760,45.600 115.200 C 45.600 115.640,45.420 116.000,45.200 116.000 C 44.980 116.000,44.800 116.360,44.800 116.800 C 44.800 117.240,44.620 117.600,44.400 117.600 C 44.180 117.600,44.000 117.945,44.000 118.367 C 44.000 118.788,43.865 119.193,43.700 119.267 C 43.227 119.477,42.000 121.856,42.000 122.562 C 42.000 122.913,41.820 123.200,41.600 123.200 C 41.380 123.200,41.200 123.560,41.200 124.000 C 41.200 124.440,41.020 124.800,40.800 124.800 C 40.580 124.800,40.400 125.250,40.400 125.800 C 40.400 126.350,40.220 126.800,40.000 126.800 C 39.780 126.800,39.600 127.160,39.600 127.600 C 39.600 128.040,39.420 128.400,39.200 128.400 C 38.980 128.400,38.800 128.760,38.800 129.200 C 38.800 129.640,38.620 130.000,38.400 130.000 C 38.180 130.000,38.000 130.360,38.000 130.800 C 38.000 131.240,37.820 131.600,37.600 131.600 C 37.380 131.600,37.200 132.140,37.200 132.800 C 37.200 133.460,37.020 134.000,36.800 134.000 C 36.580 134.000,36.400 134.360,36.400 134.800 C 36.400 135.240,36.220 135.600,36.000 135.600 C 35.780 135.600,35.600 136.140,35.600 136.800 C 35.600 137.460,35.420 138.000,35.200 138.000 C 34.980 138.000,34.800 138.360,34.800 138.800 C 34.800 139.240,34.620 139.600,34.400 139.600 C 34.180 139.600,34.000 140.140,34.000 140.800 C 34.000 141.460,33.820 142.000,33.600 142.000 C 33.380 142.000,33.200 142.439,33.200 142.976 C 33.200 143.513,33.020 144.064,32.800 144.200 C 32.580 144.336,32.400 144.887,32.400 145.424 C 32.400 145.961,32.220 146.400,32.000 146.400 C 31.780 146.400,31.600 146.940,31.600 147.600 C 31.600 148.260,31.420 148.800,31.200 148.800 C 30.980 148.800,30.800 149.329,30.800 149.976 C 30.800 150.623,30.620 151.264,30.400 151.400 C 30.180 151.536,30.000 152.267,30.000 153.024 C 30.000 153.781,29.820 154.400,29.600 154.400 C 29.380 154.400,29.200 154.929,29.200 155.576 C 29.200 156.223,29.020 156.864,28.800 157.000 C 28.580 157.136,28.400 157.946,28.400 158.800 C 28.400 159.654,28.220 160.464,28.000 160.600 C 27.780 160.736,27.600 161.456,27.600 162.200 C 27.600 162.944,27.420 163.664,27.200 163.800 C 26.980 163.936,26.800 164.836,26.800 165.800 C 26.800 166.764,26.620 167.664,26.400 167.800 C 26.180 167.936,26.000 168.745,26.000 169.598 C 26.000 170.450,25.820 171.621,25.600 172.199 C 25.381 172.777,25.083 175.309,24.939 177.825 C 24.796 180.341,24.526 182.400,24.339 182.400 C 24.153 182.400,24.000 184.560,24.000 187.200 C 24.000 190.133,23.844 192.000,23.600 192.000 C 23.053 192.000,23.053 213.862,23.600 214.200 C 23.827 214.340,24.000 216.330,24.000 218.800 C 24.000 221.270,24.173 223.260,24.400 223.400 C 24.620 223.536,24.806 224.672,24.813 225.924 C 24.820 227.176,25.016 229.460,25.248 231.000 C 26.129 236.860,26.366 238.259,26.802 240.200 C 27.049 241.300,27.349 242.876,27.468 243.703 C 27.587 244.529,27.845 245.305,28.042 245.426 C 28.239 245.548,28.400 246.357,28.400 247.224 C 28.400 248.091,28.560 248.800,28.756 248.800 C 28.952 248.800,29.222 249.430,29.356 250.200 C 29.490 250.970,29.710 252.230,29.844 253.000 C 29.978 253.770,30.248 254.400,30.444 254.400 C 30.640 254.400,30.800 254.929,30.800 255.576 C 30.800 256.223,30.980 256.864,31.200 257.000 C 31.420 257.136,31.600 257.676,31.600 258.200 C 31.600 258.724,31.744 259.242,31.921 259.351 C 32.097 259.460,32.493 260.472,32.800 261.600 C 33.107 262.728,33.503 263.740,33.679 263.849 C 33.856 263.958,34.000 264.487,34.000 265.024 C 34.000 265.561,34.180 266.000,34.400 266.000 C 34.620 266.000,34.800 266.540,34.800 267.200 C 34.800 267.860,34.980 268.400,35.200 268.400 C 35.420 268.400,35.600 268.760,35.600 269.200 C 35.600 269.640,35.780 270.000,36.000 270.000 C 36.220 270.000,36.400 270.439,36.400 270.976 C 36.400 271.513,36.580 272.064,36.800 272.200 C 37.020 272.336,37.200 272.797,37.200 273.224 C 37.200 273.651,37.335 274.001,37.500 274.003 C 37.906 274.007,38.800 275.986,38.800 276.880 C 38.800 277.276,38.980 277.600,39.200 277.600 C 39.420 277.600,39.600 277.960,39.600 278.400 C 39.600 278.840,39.780 279.200,40.000 279.200 C 40.220 279.200,40.400 279.560,40.400 280.000 C 40.400 280.440,40.580 280.800,40.800 280.800 C 41.020 280.800,41.200 281.072,41.200 281.405 C 41.200 281.738,41.367 282.323,41.572 282.705 C 41.776 283.087,42.625 284.840,43.459 286.600 C 44.292 288.360,45.193 290.026,45.461 290.302 C 45.729 290.579,46.062 291.164,46.201 291.602 C 46.340 292.041,46.622 292.400,46.827 292.400 C 47.032 292.400,47.200 292.760,47.200 293.200 C 47.200 293.640,47.380 294.000,47.600 294.000 C 47.820 294.000,48.000 294.320,48.000 294.712 C 48.000 295.103,48.360 295.683,48.800 296.000 C 49.240 296.317,49.600 296.814,49.600 297.105 C 49.600 297.396,49.960 298.020,50.400 298.492 C 50.840 298.964,51.200 299.587,51.200 299.875 C 51.200 300.164,51.380 300.400,51.600 300.400 C 51.820 300.400,52.000 300.636,52.000 300.925 C 52.000 301.213,52.360 301.836,52.800 302.308 C 53.240 302.780,53.600 303.309,53.600 303.483 C 53.601 303.657,54.066 304.340,54.635 305.000 C 55.204 305.660,55.963 306.695,56.321 307.300 C 56.679 307.905,57.114 308.400,57.286 308.400 C 57.459 308.400,57.600 308.588,57.600 308.817 C 57.600 309.046,57.783 309.451,58.007 309.717 C 59.532 311.525,60.000 312.158,60.000 312.411 C 60.000 312.570,60.630 313.387,61.400 314.228 C 62.170 315.069,62.800 315.915,62.800 316.110 C 62.800 316.304,63.481 317.124,64.313 317.931 C 65.145 318.739,66.264 320.030,66.799 320.800 C 67.334 321.570,68.462 322.830,69.307 323.600 C 72.437 326.454,74.800 328.892,74.800 329.269 C 74.800 329.682,75.795 330.800,76.162 330.800 C 76.283 330.800,78.293 332.690,80.628 335.000 C 82.963 337.310,85.018 339.200,85.195 339.200 C 85.484 339.200,86.521 340.051,89.086 342.391 C 89.573 342.836,90.165 343.200,90.402 343.200 C 90.638 343.200,91.517 343.920,92.354 344.800 C 93.191 345.680,94.044 346.400,94.250 346.400 C 94.455 346.400,94.883 346.760,95.200 347.200 C 95.517 347.640,96.007 348.000,96.288 348.000 C 96.570 348.000,96.800 348.180,96.800 348.400 C 96.800 348.620,97.030 348.800,97.312 348.800 C 97.593 348.800,98.083 349.160,98.400 349.600 C 98.717 350.040,99.231 350.400,99.541 350.400 C 99.852 350.400,100.397 350.716,100.753 351.103 C 101.109 351.489,101.895 352.060,102.500 352.370 C 103.105 352.681,103.600 353.085,103.600 353.268 C 103.600 353.450,103.920 353.600,104.312 353.600 C 104.703 353.600,105.283 353.960,105.600 354.400 C 105.917 354.840,106.414 355.200,106.705 355.200 C 106.996 355.200,107.590 355.532,108.026 355.938 C 108.462 356.344,109.849 357.199,111.109 357.838 C 112.369 358.477,113.460 359.135,113.533 359.300 C 113.607 359.465,113.997 359.600,114.400 359.600 C 114.803 359.600,115.193 359.735,115.267 359.900 C 115.387 360.170,117.489 361.378,119.897 362.560 C 120.390 362.802,120.795 363.135,120.797 363.300 C 120.799 363.465,121.160 363.600,121.600 363.600 C 122.040 363.600,122.400 363.780,122.400 364.000 C 122.400 364.220,122.760 364.400,123.200 364.400 C 123.640 364.400,124.000 364.580,124.000 364.800 C 124.000 365.020,124.349 365.200,124.776 365.200 C 125.203 365.200,125.664 365.380,125.800 365.600 C 125.936 365.820,126.397 366.000,126.824 366.000 C 127.251 366.000,127.600 366.180,127.600 366.400 C 127.600 366.620,127.960 366.800,128.400 366.800 C 128.840 366.800,129.200 366.980,129.200 367.200 C 129.200 367.420,129.560 367.600,130.000 367.600 C 130.440 367.600,130.800 367.780,130.800 368.000 C 130.800 368.220,131.160 368.400,131.600 368.400 C 132.040 368.400,132.400 368.580,132.400 368.800 C 132.400 369.020,132.940 369.200,133.600 369.200 C 134.260 369.200,134.800 369.380,134.800 369.600 C 134.800 369.820,135.149 370.000,135.576 370.000 C 136.003 370.000,136.464 370.180,136.600 370.400 C 136.736 370.620,137.287 370.800,137.824 370.800 C 138.361 370.800,138.800 370.980,138.800 371.200 C 138.800 371.420,139.149 371.600,139.576 371.600 C 140.003 371.600,140.464 371.780,140.600 372.000 C 140.736 372.220,141.276 372.400,141.800 372.400 C 142.324 372.400,142.864 372.580,143.000 372.800 C 143.136 373.020,143.657 373.200,144.157 373.200 C 144.657 373.200,145.190 373.323,145.341 373.474 C 145.855 373.988,148.596 374.796,150.700 375.053 C 151.855 375.195,152.800 375.465,152.800 375.655 C 152.800 375.845,153.340 376.000,154.000 376.000 C 154.660 376.000,155.200 376.180,155.200 376.400 C 155.200 376.620,155.920 376.800,156.800 376.800 C 157.680 376.800,158.400 376.980,158.400 377.200 C 158.400 377.420,159.120 377.600,160.000 377.600 C 160.880 377.600,161.600 377.780,161.600 378.000 C 161.600 378.220,162.320 378.400,163.200 378.400 C 164.080 378.400,164.800 378.580,164.800 378.800 C 164.800 379.020,165.790 379.200,167.000 379.200 C 168.210 379.200,169.200 379.380,169.200 379.600 C 169.200 379.820,170.100 380.000,171.200 380.000 C 172.300 380.000,173.200 380.180,173.200 380.400 C 173.200 380.625,174.325 380.800,175.776 380.800 C 177.193 380.800,178.464 380.980,178.600 381.200 C 178.736 381.420,180.367 381.600,182.224 381.600 C 184.208 381.600,185.600 381.765,185.600 382.000 C 185.600 382.252,188.259 382.400,192.776 382.400 C 197.129 382.400,200.050 382.557,200.200 382.800 C 200.336 383.020,201.596 383.200,203.000 383.200 C 204.404 383.200,205.664 383.020,205.800 382.800 C 205.950 382.557,208.863 382.400,213.200 382.400 C 217.537 382.400,220.450 382.243,220.600 382.000 C 220.736 381.780,222.187 381.600,223.824 381.600 C 225.541 381.600,226.800 381.431,226.800 381.200 C 226.800 380.971,228.000 380.800,229.600 380.800 C 231.200 380.800,232.400 380.629,232.400 380.400 C 232.400 380.180,233.379 380.000,234.576 380.000 C 235.773 380.000,236.864 379.820,237.000 379.600 C 237.136 379.380,238.036 379.200,239.000 379.200 C 239.964 379.200,240.864 379.020,241.000 378.800 C 241.136 378.580,241.867 378.400,242.624 378.400 C 243.381 378.400,244.000 378.220,244.000 378.000 C 244.000 377.780,244.720 377.600,245.600 377.600 C 246.480 377.600,247.200 377.420,247.200 377.200 C 247.200 376.980,247.920 376.800,248.800 376.800 C 249.680 376.800,250.400 376.620,250.400 376.400 C 250.400 376.180,251.120 376.000,252.000 376.000 C 252.880 376.000,253.600 375.844,253.600 375.654 C 253.600 375.464,254.395 375.200,255.368 375.066 C 257.625 374.757,260.400 373.895,260.400 373.503 C 260.400 373.336,260.940 373.200,261.600 373.200 C 262.260 373.200,262.800 373.020,262.800 372.800 C 262.800 372.580,263.340 372.400,264.000 372.400 C 264.660 372.400,265.200 372.220,265.200 372.000 C 265.200 371.780,265.639 371.600,266.176 371.600 C 266.713 371.600,267.264 371.420,267.400 371.200 C 267.536 370.980,267.997 370.800,268.424 370.800 C 268.851 370.800,269.200 370.620,269.200 370.400 C 269.200 370.180,269.639 370.000,270.176 370.000 C 270.713 370.000,271.264 369.820,271.400 369.600 C 271.536 369.380,271.997 369.200,272.424 369.200 C 272.851 369.200,273.200 369.020,273.200 368.800 C 273.200 368.580,273.549 368.400,273.976 368.400 C 274.403 368.400,274.864 368.220,275.000 368.000 C 275.136 367.780,275.597 367.600,276.024 367.600 C 276.451 367.600,276.800 367.420,276.800 367.200 C 276.800 366.980,277.160 366.800,277.600 366.800 C 278.040 366.800,278.400 366.620,278.400 366.400 C 278.400 366.180,278.760 366.000,279.200 366.000 C 279.640 366.000,280.000 365.820,280.000 365.600 C 280.000 365.380,280.360 365.200,280.800 365.200 C 281.240 365.200,281.600 365.020,281.600 364.800 C 281.600 364.580,281.960 364.400,282.400 364.400 C 282.840 364.400,283.200 364.220,283.200 364.000 C 283.200 363.780,283.560 363.600,284.000 363.600 C 284.440 363.600,284.800 363.420,284.800 363.200 C 284.800 362.980,285.160 362.800,285.600 362.800 C 286.040 362.800,286.400 362.620,286.400 362.400 C 286.400 362.180,286.760 362.000,287.200 362.000 C 287.640 362.000,288.000 361.820,288.000 361.600 C 288.000 361.380,288.360 361.200,288.800 361.200 C 289.240 361.200,289.600 361.020,289.600 360.800 C 289.600 360.580,289.855 360.400,290.167 360.400 C 290.478 360.400,290.793 360.261,290.867 360.092 C 290.940 359.922,292.395 359.071,294.100 358.200 C 295.805 357.329,297.200 356.478,297.200 356.308 C 297.200 356.139,297.520 356.000,297.912 356.000 C 298.303 356.000,298.883 355.640,299.200 355.200 C 299.517 354.760,300.014 354.400,300.305 354.400 C 300.596 354.400,301.220 354.040,301.692 353.600 C 302.164 353.160,302.787 352.800,303.075 352.800 C 303.364 352.800,303.600 352.620,303.600 352.400 C 303.600 352.180,303.778 352.000,303.995 352.000 C 304.367 352.000,305.415 351.240,306.616 350.100 C 306.906 349.825,307.296 349.600,307.483 349.600 C 307.670 349.600,308.083 349.240,308.400 348.800 C 308.717 348.360,309.207 348.000,309.488 348.000 C 309.769 348.000,310.741 347.280,311.648 346.400 C 312.555 345.520,313.473 344.800,313.688 344.800 C 313.903 344.800,314.560 344.305,315.147 343.700 C 315.734 343.095,316.688 342.330,317.266 342.000 C 319.627 340.652,334.365 326.390,339.400 320.582 C 340.500 319.313,341.625 318.046,341.900 317.766 C 342.175 317.486,342.400 317.064,342.400 316.829 C 342.400 316.594,343.120 315.659,344.000 314.752 C 344.880 313.845,345.600 312.927,345.600 312.712 C 345.600 312.497,346.140 311.817,346.800 311.200 C 347.460 310.583,348.000 309.831,348.000 309.528 C 348.000 309.225,348.360 308.717,348.800 308.400 C 349.240 308.083,349.600 307.633,349.600 307.400 C 349.600 307.167,349.960 306.717,350.400 306.400 C 350.840 306.083,351.200 305.627,351.200 305.387 C 351.200 305.147,351.515 304.602,351.900 304.175 C 352.285 303.749,352.855 302.905,353.168 302.300 C 353.480 301.695,353.885 301.200,354.068 301.200 C 354.250 301.200,354.400 300.880,354.400 300.488 C 354.400 300.097,354.760 299.517,355.200 299.200 C 355.640 298.883,356.000 298.303,356.000 297.912 C 356.000 297.520,356.149 297.200,356.330 297.200 C 356.512 297.200,357.187 296.120,357.830 294.801 C 358.474 293.481,359.101 292.401,359.225 292.401 C 359.349 292.400,359.698 291.770,360.000 291.000 C 360.302 290.230,360.696 289.600,360.875 289.600 C 361.054 289.600,361.200 289.240,361.200 288.800 C 361.200 288.360,361.380 288.000,361.600 288.000 C 361.820 288.000,362.000 287.640,362.000 287.200 C 362.000 286.760,362.180 286.400,362.400 286.400 C 362.620 286.400,362.800 286.040,362.800 285.600 C 362.800 285.160,362.980 284.800,363.200 284.800 C 363.420 284.800,363.600 284.440,363.600 284.000 C 363.600 283.560,363.780 283.200,364.000 283.200 C 364.220 283.200,364.400 282.840,364.400 282.400 C 364.400 281.960,364.580 281.600,364.800 281.600 C 365.020 281.600,365.200 281.240,365.200 280.800 C 365.200 280.360,365.380 280.000,365.600 280.000 C 365.820 280.000,366.000 279.640,366.000 279.200 C 366.000 278.760,366.180 278.400,366.400 278.400 C 366.620 278.400,366.800 278.040,366.800 277.600 C 366.800 277.160,366.980 276.800,367.200 276.800 C 367.420 276.800,367.600 276.440,367.600 276.000 C 367.600 275.560,367.780 275.200,368.000 275.200 C 368.220 275.200,368.400 274.750,368.400 274.200 C 368.400 273.650,368.580 273.200,368.800 273.200 C 369.020 273.200,369.200 272.851,369.200 272.424 C 369.200 271.997,369.380 271.536,369.600 271.400 C 369.820 271.264,370.000 270.713,370.000 270.176 C 370.000 269.639,370.180 269.200,370.400 269.200 C 370.620 269.200,370.800 268.851,370.800 268.424 C 370.800 267.997,370.980 267.536,371.200 267.400 C 371.420 267.264,371.600 266.713,371.600 266.176 C 371.600 265.639,371.780 265.200,372.000 265.200 C 372.220 265.200,372.400 264.660,372.400 264.000 C 372.400 263.340,372.580 262.800,372.800 262.800 C 373.020 262.800,373.200 262.361,373.200 261.824 C 373.200 261.287,373.380 260.736,373.600 260.600 C 373.820 260.464,374.000 259.924,374.000 259.400 C 374.000 258.876,374.167 258.344,374.372 258.217 C 374.577 258.091,374.867 257.000,375.018 255.794 C 375.169 254.587,375.451 253.600,375.646 253.600 C 375.841 253.600,376.000 252.880,376.000 252.000 C 376.000 251.120,376.180 250.400,376.400 250.400 C 376.620 250.400,376.800 249.860,376.800 249.200 C 376.800 248.540,376.980 248.000,377.200 248.000 C 377.420 248.000,377.600 247.100,377.600 246.000 C 377.600 244.900,377.780 244.000,378.000 244.000 C 378.220 244.000,378.400 243.280,378.400 242.400 C 378.400 241.520,378.580 240.800,378.800 240.800 C 379.020 240.800,379.200 240.001,379.200 239.024 C 379.200 238.047,379.380 237.136,379.600 237.000 C 379.820 236.864,380.000 235.773,380.000 234.576 C 380.000 233.379,380.180 232.400,380.400 232.400 C 380.629 232.400,380.800 231.200,380.800 229.600 C 380.800 228.000,380.971 226.800,381.200 226.800 C 381.431 226.800,381.600 225.541,381.600 223.824 C 381.600 222.187,381.780 220.736,382.000 220.600 C 382.240 220.452,382.400 217.756,382.400 213.856 C 382.400 209.769,382.559 207.201,382.829 206.931 C 383.110 206.650,383.174 205.142,383.016 202.551 C 382.883 200.378,382.682 195.675,382.569 192.100 C 382.451 188.389,382.199 185.600,381.981 185.600 C 381.769 185.600,381.600 184.089,381.600 182.200 C 381.600 180.200,381.435 178.800,381.200 178.800 C 380.971 178.800,380.800 177.600,380.800 176.000 C 380.800 174.400,380.629 173.200,380.400 173.200 C 380.180 173.200,380.000 172.300,380.000 171.200 C 380.000 170.100,379.820 169.200,379.600 169.200 C 379.380 169.200,379.200 168.311,379.200 167.224 C 379.200 166.137,379.020 165.136,378.800 165.000 C 378.580 164.864,378.400 164.054,378.400 163.200 C 378.400 162.346,378.220 161.536,378.000 161.400 C 377.780 161.264,377.600 160.533,377.600 159.776 C 377.600 159.019,377.420 158.400,377.200 158.400 C 376.980 158.400,376.800 157.680,376.800 156.800 C 376.800 155.920,376.620 155.200,376.400 155.200 C 376.180 155.200,376.000 154.660,376.000 154.000 C 376.000 153.340,375.820 152.800,375.600 152.800 C 375.380 152.800,375.200 152.174,375.200 151.408 C 375.200 150.067,373.594 144.533,372.791 143.105 C 372.576 142.723,372.400 142.059,372.400 141.629 C 372.400 141.199,372.220 140.736,372.000 140.600 C 371.780 140.464,371.600 140.003,371.600 139.576 C 371.600 139.149,371.420 138.800,371.200 138.800 C 370.980 138.800,370.800 138.260,370.800 137.600 C 370.800 136.940,370.620 136.400,370.400 136.400 C 370.180 136.400,370.000 136.040,370.000 135.600 C 370.000 135.160,369.820 134.800,369.600 134.800 C 369.380 134.800,369.200 134.260,369.200 133.600 C 369.200 132.940,369.020 132.400,368.800 132.400 C 368.580 132.400,368.400 132.040,368.400 131.600 C 368.400 131.160,368.220 130.800,368.000 130.800 C 367.780 130.800,367.600 130.440,367.600 130.000 C 367.600 129.560,367.420 129.200,367.200 129.200 C 366.980 129.200,366.800 128.840,366.800 128.400 C 366.800 127.960,366.620 127.600,366.400 127.600 C 366.180 127.600,366.000 127.150,366.000 126.600 C 366.000 126.050,365.820 125.600,365.600 125.600 C 365.380 125.600,365.200 125.240,365.200 124.800 C 365.200 124.360,365.020 124.000,364.800 124.000 C 364.580 124.000,364.400 123.640,364.400 123.200 C 364.400 122.760,364.220 122.400,364.000 122.400 C 363.780 122.400,363.600 122.040,363.600 121.600 C 363.600 121.160,363.420 120.800,363.200 120.800 C 362.980 120.800,362.800 120.440,362.800 120.000 C 362.800 119.560,362.620 119.200,362.400 119.200 C 362.180 119.200,362.000 118.840,362.000 118.400 C 362.000 117.960,361.820 117.600,361.600 117.600 C 361.380 117.600,361.200 117.364,361.200 117.075 C 361.200 116.787,360.840 116.164,360.400 115.692 C 359.960 115.220,359.600 114.556,359.600 114.217 C 359.600 113.878,359.420 113.600,359.200 113.600 C 358.980 113.600,358.800 113.251,358.800 112.824 C 358.800 112.397,358.625 111.939,358.411 111.807 C 358.197 111.674,357.738 110.968,357.391 110.237 C 357.044 109.506,356.409 108.531,355.980 108.071 C 355.551 107.610,355.200 107.038,355.200 106.800 C 355.200 106.562,354.840 105.980,354.400 105.508 C 353.960 105.036,353.600 104.413,353.600 104.125 C 353.600 103.836,353.420 103.600,353.200 103.600 C 352.980 103.600,352.800 103.375,352.799 103.100 C 352.799 102.825,352.259 101.970,351.600 101.200 C 350.941 100.430,350.401 99.615,350.401 99.388 C 350.400 99.162,350.040 98.717,349.600 98.400 C 349.160 98.083,348.800 97.620,348.800 97.371 C 348.800 97.122,348.260 96.354,347.600 95.663 C 346.940 94.972,346.400 94.290,346.400 94.147 C 346.400 94.004,345.860 93.371,345.200 92.740 C 344.540 92.109,344.000 91.409,344.000 91.183 C 344.000 90.958,343.415 90.159,342.700 89.408 C 341.196 87.829,340.846 87.394,339.903 85.924 C 339.523 85.332,337.815 83.407,336.106 81.647 C 334.398 79.886,332.100 77.483,331.000 76.307 C 329.900 75.130,328.370 73.735,327.600 73.207 C 326.830 72.678,325.930 71.905,325.600 71.489 C 324.285 69.831,321.323 66.924,320.000 65.991 C 319.230 65.448,317.903 64.328,317.052 63.502 C 316.200 62.676,315.344 62.000,315.148 62.000 C 314.953 62.000,314.228 61.460,313.537 60.800 C 312.846 60.140,312.115 59.600,311.912 59.600 C 311.709 59.600,311.292 59.375,310.985 59.100 C 309.708 57.955,309.216 57.600,308.905 57.600 C 308.724 57.600,308.317 57.240,308.000 56.800 C 307.683 56.360,307.193 56.000,306.912 56.000 C 306.630 56.000,306.400 55.820,306.400 55.600 C 306.400 55.380,306.170 55.200,305.888 55.200 C 305.607 55.200,305.117 54.840,304.800 54.400 C 304.483 53.960,303.943 53.600,303.600 53.600 C 303.257 53.600,302.717 53.240,302.400 52.800 C 302.083 52.360,301.586 52.000,301.295 52.000 C 301.004 52.000,300.380 51.640,299.908 51.200 C 299.436 50.760,298.813 50.400,298.525 50.400 C 298.236 50.400,298.000 50.220,298.000 50.000 C 298.000 49.780,297.680 49.600,297.288 49.600 C 296.897 49.600,296.317 49.240,296.000 48.800 C 295.683 48.360,295.103 48.000,294.712 48.000 C 294.320 48.000,294.000 47.820,294.000 47.600 C 294.000 47.380,293.640 47.200,293.200 47.200 C 292.760 47.200,292.400 47.050,292.400 46.868 C 292.400 46.685,291.905 46.280,291.300 45.968 C 290.695 45.656,290.110 45.303,290.000 45.183 C 289.890 45.062,288.360 44.284,286.600 43.454 C 284.840 42.623,283.087 41.776,282.705 41.572 C 282.323 41.367,281.738 41.200,281.405 41.200 C 281.072 41.200,280.800 41.020,280.800 40.800 C 280.800 40.580,280.440 40.400,280.000 40.400 C 279.560 40.400,279.200 40.220,279.200 40.000 C 279.200 39.780,278.840 39.600,278.400 39.600 C 277.960 39.600,277.600 39.420,277.600 39.200 C 277.600 38.980,277.240 38.800,276.800 38.800 C 276.360 38.800,276.000 38.620,276.000 38.400 C 276.000 38.180,275.550 38.000,275.000 38.000 C 274.450 38.000,274.000 37.820,274.000 37.600 C 274.000 37.380,273.640 37.200,273.200 37.200 C 272.760 37.200,272.400 37.020,272.400 36.800 C 272.400 36.580,271.961 36.400,271.424 36.400 C 270.887 36.400,270.336 36.220,270.200 36.000 C 270.064 35.780,269.603 35.600,269.176 35.600 C 268.749 35.600,268.400 35.420,268.400 35.200 C 268.400 34.980,267.860 34.800,267.200 34.800 C 266.540 34.800,266.000 34.620,266.000 34.400 C 266.000 34.180,265.651 34.000,265.224 34.000 C 264.797 34.000,264.336 33.820,264.200 33.600 C 264.064 33.380,263.513 33.200,262.976 33.200 C 262.439 33.200,262.000 33.020,262.000 32.800 C 262.000 32.580,261.460 32.400,260.800 32.400 C 260.140 32.400,259.600 32.220,259.600 32.000 C 259.600 31.780,259.060 31.600,258.400 31.600 C 257.740 31.600,257.200 31.420,257.200 31.200 C 257.200 30.980,256.570 30.800,255.800 30.800 C 255.030 30.800,254.400 30.620,254.400 30.400 C 254.400 30.180,253.871 30.000,253.224 30.000 C 252.577 30.000,251.936 29.820,251.800 29.600 C 251.664 29.380,250.933 29.200,250.176 29.200 C 249.419 29.200,248.800 29.020,248.800 28.800 C 248.800 28.580,248.080 28.400,247.200 28.400 C 246.320 28.400,245.600 28.238,245.600 28.040 C 245.600 27.842,244.835 27.584,243.900 27.466 C 241.232 27.130,239.468 26.775,238.600 26.400 C 238.160 26.211,236.900 25.955,235.800 25.833 C 234.700 25.710,232.810 25.441,231.600 25.234 C 230.390 25.027,228.005 24.845,226.300 24.829 C 224.519 24.812,223.200 24.630,223.200 24.400 C 223.200 24.158,221.467 24.000,218.800 24.000 C 216.133 24.000,214.400 23.842,214.400 23.600 C 214.400 23.343,210.400 23.200,203.200 23.200 C 196.000 23.200,192.000 23.343,192.000 23.600 M142.165 107.944 C 142.282 108.133,143.189 108.399,144.180 108.535 C 145.908 108.772,146.275 108.897,148.300 109.938 C 150.410 111.022,151.071 111.527,153.471 113.893 C 154.862 115.264,156.000 116.659,156.000 116.993 C 156.000 117.327,156.180 117.600,156.400 117.600 C 156.620 117.600,156.800 117.960,156.800 118.400 C 156.800 118.840,156.980 119.200,157.200 119.200 C 157.420 119.200,157.600 119.545,157.600 119.967 C 157.600 120.388,157.825 120.808,158.100 120.900 C 158.474 121.025,158.600 122.769,158.600 127.800 C 158.600 132.831,158.474 134.575,158.100 134.700 C 157.825 134.792,157.600 135.212,157.600 135.633 C 157.600 136.055,157.420 136.400,157.200 136.400 C 156.980 136.400,156.800 136.760,156.800 137.200 C 156.800 137.640,156.620 138.000,156.400 138.000 C 156.180 138.000,156.000 138.284,156.000 138.631 C 156.000 139.181,154.802 140.455,151.800 143.096 C 150.658 144.101,146.026 146.400,145.144 146.400 C 144.735 146.400,144.400 146.580,144.400 146.800 C 144.400 147.020,143.680 147.200,142.800 147.200 C 141.920 147.200,141.200 147.380,141.200 147.600 C 141.200 147.840,139.608 148.000,137.224 148.000 C 135.004 148.000,133.138 147.823,133.000 147.600 C 132.864 147.380,132.311 147.200,131.770 147.200 C 130.504 147.200,127.600 146.296,127.600 145.903 C 127.600 145.736,127.240 145.600,126.800 145.600 C 126.360 145.600,126.000 145.420,126.000 145.200 C 126.000 144.980,125.807 144.800,125.572 144.800 C 124.427 144.800,119.200 140.475,119.200 139.528 C 119.200 139.225,118.840 138.717,118.400 138.400 C 117.960 138.083,117.600 137.503,117.600 137.112 C 117.600 136.720,117.420 136.400,117.200 136.400 C 116.980 136.400,116.800 135.961,116.800 135.424 C 116.800 134.887,116.620 134.336,116.400 134.200 C 116.180 134.064,116.000 133.423,116.000 132.776 C 116.000 132.129,115.820 131.600,115.600 131.600 C 115.362 131.600,115.200 130.075,115.200 127.824 C 115.200 125.737,115.379 123.937,115.600 123.800 C 115.820 123.664,116.000 123.034,116.000 122.400 C 116.000 121.766,116.180 121.136,116.400 121.000 C 116.620 120.864,116.800 120.403,116.800 119.976 C 116.800 119.549,116.980 119.200,117.200 119.200 C 117.420 119.200,117.600 118.840,117.600 118.400 C 117.600 117.960,117.750 117.600,117.932 117.600 C 118.115 117.600,118.520 117.107,118.832 116.505 C 119.393 115.424,122.565 112.000,123.006 112.000 C 123.131 112.000,123.620 111.640,124.092 111.200 C 124.564 110.760,125.187 110.400,125.475 110.400 C 125.764 110.400,126.000 110.220,126.000 110.000 C 126.000 109.780,126.360 109.600,126.800 109.600 C 127.240 109.600,127.600 109.438,127.600 109.239 C 127.600 109.041,128.647 108.757,129.926 108.609 C 131.205 108.460,132.510 108.175,132.826 107.975 C 133.557 107.513,141.882 107.485,142.165 107.944 M265.200 164.000 C 265.200 164.220,266.100 164.400,267.200 164.400 C 268.300 164.400,269.200 164.580,269.200 164.800 C 269.200 165.020,269.563 165.200,270.006 165.200 C 271.133 165.200,274.000 166.131,274.000 166.497 C 274.000 166.664,274.324 166.800,274.720 166.800 C 275.614 166.800,277.593 167.694,277.597 168.100 C 277.599 168.265,277.960 168.400,278.400 168.400 C 278.840 168.400,279.200 168.580,279.200 168.800 C 279.200 169.020,279.560 169.200,280.000 169.200 C 280.440 169.200,280.800 169.350,280.800 169.532 C 280.800 169.715,281.295 170.119,281.900 170.430 C 282.505 170.740,283.270 171.283,283.600 171.634 C 283.930 171.986,284.633 172.504,285.162 172.785 C 286.702 173.601,291.200 177.833,291.200 178.465 C 291.200 178.668,291.425 179.102,291.700 179.431 C 291.975 179.759,292.380 180.247,292.600 180.514 C 292.820 180.781,293.255 181.495,293.568 182.100 C 293.880 182.705,294.285 183.200,294.468 183.200 C 294.650 183.200,294.800 183.560,294.800 184.000 C 294.800 184.440,294.980 184.800,295.200 184.800 C 295.420 184.800,295.600 185.160,295.600 185.600 C 295.600 186.040,295.780 186.400,296.000 186.400 C 296.220 186.400,296.400 186.760,296.400 187.200 C 296.400 187.640,296.580 188.000,296.800 188.000 C 297.020 188.000,297.200 188.360,297.200 188.800 C 297.200 189.240,297.380 189.600,297.600 189.600 C 297.820 189.600,298.000 190.050,298.000 190.600 C 298.000 191.150,298.180 191.600,298.400 191.600 C 298.620 191.600,298.800 192.039,298.800 192.576 C 298.800 193.113,298.980 193.664,299.200 193.800 C 299.420 193.936,299.600 194.577,299.600 195.224 C 299.600 195.871,299.780 196.400,300.000 196.400 C 300.220 196.400,300.400 197.120,300.400 198.000 C 300.400 198.880,300.580 199.600,300.800 199.600 C 301.020 199.600,301.200 200.500,301.200 201.600 C 301.200 202.700,301.380 203.600,301.600 203.600 C 301.828 203.600,302.000 204.792,302.000 206.376 C 302.000 207.903,302.180 209.264,302.400 209.400 C 302.662 209.562,302.800 222.871,302.800 248.024 L 302.800 286.400 283.200 286.400 L 263.600 286.400 263.600 250.400 C 263.600 226.667,263.464 214.400,263.200 214.400 C 262.980 214.400,262.800 213.410,262.800 212.200 C 262.800 210.990,262.620 210.000,262.400 210.000 C 262.180 210.000,262.000 209.460,262.000 208.800 C 262.000 208.140,261.820 207.600,261.600 207.600 C 261.380 207.600,261.200 207.060,261.200 206.400 C 261.200 205.740,261.020 205.200,260.800 205.200 C 260.580 205.200,260.400 204.840,260.400 204.400 C 260.400 203.960,260.220 203.600,260.000 203.600 C 259.780 203.600,259.600 203.322,259.600 202.983 C 259.600 202.249,259.293 201.851,256.347 198.762 C 255.107 197.463,253.802 196.400,253.447 196.400 C 253.091 196.400,252.800 196.220,252.800 196.000 C 252.800 195.780,252.440 195.600,252.000 195.600 C 251.560 195.600,251.200 195.420,251.200 195.200 C 251.200 194.980,250.660 194.800,250.000 194.800 C 249.340 194.800,248.800 194.620,248.800 194.400 C 248.800 194.151,246.467 194.000,242.600 194.000 C 238.733 194.000,236.400 194.151,236.400 194.400 C 236.400 194.620,235.860 194.800,235.200 194.800 C 234.540 194.800,234.000 194.980,234.000 195.200 C 234.000 195.420,233.584 195.600,233.075 195.600 C 232.567 195.600,231.764 195.960,231.292 196.400 C 230.820 196.840,230.237 197.200,229.998 197.200 C 229.126 197.200,223.215 203.727,223.205 204.700 C 223.202 204.975,223.020 205.200,222.800 205.200 C 222.580 205.200,222.400 205.560,222.400 206.000 C 222.400 206.440,222.220 206.800,222.000 206.800 C 221.780 206.800,221.600 207.160,221.600 207.600 C 221.600 208.040,221.420 208.400,221.200 208.400 C 220.980 208.400,220.800 208.814,220.800 209.320 C 220.800 209.826,220.575 210.465,220.300 210.740 C 219.909 211.131,219.770 219.438,219.662 248.820 L 219.525 286.400 200.162 286.400 L 180.800 286.400 180.800 226.200 L 180.800 166.000 200.192 166.000 L 219.584 166.000 219.692 174.500 C 219.797 182.734,219.826 183.004,220.623 183.118 C 221.187 183.198,221.627 182.884,222.023 182.118 C 222.340 181.503,222.930 180.640,223.334 180.200 C 223.738 179.760,224.348 178.860,224.691 178.200 C 225.034 177.540,226.033 176.370,226.911 175.600 C 227.789 174.830,229.108 173.615,229.841 172.900 C 230.574 172.185,231.333 171.600,231.527 171.600 C 231.722 171.600,232.446 171.060,233.137 170.400 C 233.828 169.740,234.664 169.200,234.996 169.200 C 235.328 169.200,235.600 169.020,235.600 168.800 C 235.600 168.580,235.945 168.400,236.367 168.400 C 236.788 168.400,237.193 168.265,237.267 168.100 C 237.488 167.601,240.822 166.000,241.638 166.000 C 242.057 166.000,242.400 165.820,242.400 165.600 C 242.400 165.380,242.929 165.200,243.576 165.200 C 244.223 165.200,244.864 165.020,245.000 164.800 C 245.136 164.580,246.047 164.400,247.024 164.400 C 248.001 164.400,248.800 164.220,248.800 164.000 C 248.800 163.746,251.800 163.600,257.000 163.600 C 262.200 163.600,265.200 163.746,265.200 164.000 M156.800 226.200 L 156.800 286.400 137.200 286.400 L 117.600 286.400 117.600 226.200 L 117.600 166.000 137.200 166.000 L 156.800 166.000 156.800 226.200 " stroke="none" fill="#047cbc" fill-rule="evenodd"></path><path id="path1" d="" stroke="none" fill="#087cbc" fill-rule="evenodd"></path><path id="path2" d="" stroke="none" fill="#087cbc" fill-rule="evenodd"></path><path id="path3" d="" stroke="none" fill="#087cbc" fill-rule="evenodd"></path><path id="path4" d="" stroke="none" fill="#087cbc" fill-rule="evenodd"></path></g></svg>