<svg id="svg" version="1.1" xmlns="http://www.w3.org/2000/svg" xmlns:xlink="http://www.w3.org/1999/xlink" width="400" height="400.18298261665143" viewBox="0, 0, 400,400.18298261665143"><g id="svgg"><path id="path0" d="M254.600 67.890 C 218.485 70.334,193.064 104.668,200.817 140.531 C 201.371 143.097,201.826 145.300,201.827 145.425 C 201.830 145.717,190.063 145.745,185.544 145.465 C 149.282 143.215,104.431 119.068,82.519 89.996 C 80.792 87.706,79.023 84.841,77.665 82.138 L 76.822 80.459 76.168 81.629 C 66.606 98.729,65.028 120.904,72.264 136.498 C 79.269 151.593,88.833 161.975,101.830 168.593 C 102.333 168.849,102.662 169.062,102.562 169.066 C 102.099 169.086,95.167 168.690,92.955 168.519 C 82.122 167.678,76.216 165.970,69.869 161.844 C 68.732 161.105,67.789 160.515,67.773 160.534 C 67.692 160.632,68.130 164.934,68.448 167.155 C 70.908 184.328,80.711 201.854,92.955 210.969 C 104.850 219.824,114.370 224.384,122.964 225.344 C 125.079 225.581,125.026 225.619,121.043 226.731 C 108.901 230.120,103.155 230.147,92.541 226.864 C 88.403 225.584,88.580 225.567,89.118 227.207 C 92.702 238.126,99.153 248.289,107.228 255.736 C 117.402 265.119,127.685 269.579,142.633 271.093 C 144.241 271.256,145.590 271.421,145.629 271.460 C 145.669 271.500,143.405 273.044,140.600 274.892 C 121.622 287.393,109.811 293.166,94.442 297.453 C 84.155 300.322,80.496 300.979,67.429 302.305 C 64.225 302.630,64.270 302.570,66.169 303.962 C 94.237 324.518,134.771 334.454,171.272 329.723 C 256.336 318.699,319.867 236.453,317.343 140.622 C 317.261 137.502,317.237 134.233,317.289 133.357 L 317.383 131.764 319.790 130.129 C 330.938 122.556,341.750 111.665,345.081 104.654 C 346.005 102.709,347.779 98.079,347.600 98.079 C 347.567 98.079,345.778 98.934,343.624 99.979 C 333.709 104.790,327.931 106.743,321.592 107.424 C 319.018 107.701,313.836 107.554,313.610 107.198 C 313.306 106.719,313.462 106.540,314.520 106.155 C 323.376 102.926,329.712 96.612,335.297 85.453 C 337.772 80.506,339.150 75.287,338.457 73.482 C 338.370 73.254,336.942 73.896,331.251 76.724 C 317.994 83.311,312.311 85.665,305.320 87.462 L 302.588 88.165 299.510 85.265 C 290.649 76.920,284.348 72.973,275.755 70.385 C 269.672 68.553,260.605 67.484,254.600 67.890 " stroke="none" fill="#fbfbfb" fill-rule="evenodd"></path><path id="path1" d="M194.236 1.471 C 80.623 4.893,-7.247 102.952,1.744 216.285 C 10.454 326.072,106.433 407.890,216.285 399.171 C 325.576 390.498,407.576 294.452,398.983 185.178 C 390.631 78.961,300.693 -1.735,194.236 1.471 M262.855 67.978 C 278.228 69.323,288.058 73.997,299.959 85.618 L 302.480 88.080 304.885 87.484 C 311.874 85.755,318.303 83.100,331.382 76.542 L 338.426 73.009 338.483 74.519 C 338.638 78.606,337.008 83.143,332.781 90.392 C 328.605 97.554,321.934 103.401,314.822 106.131 C 312.806 106.905,313.038 107.202,315.835 107.427 C 323.731 108.062,332.259 105.619,345.726 98.866 L 347.718 97.867 347.608 98.421 C 347.138 100.771,344.064 107.255,342.305 109.607 C 337.566 115.944,324.228 127.917,318.019 131.406 L 317.318 131.800 317.351 143.988 C 317.384 156.237,317.342 157.467,316.639 165.233 C 309.082 248.629,251.097 316.547,176.825 328.997 C 141.289 334.954,101.385 327.002,72.143 308.137 C 68.896 306.042,64.410 302.870,64.410 302.668 C 64.410 302.591,66.160 302.348,68.298 302.127 C 96.111 299.254,113.488 292.708,140.165 275.055 L 145.563 271.482 142.430 271.163 C 131.840 270.081,123.410 267.411,116.377 262.909 C 103.784 254.850,94.193 242.485,89.314 228.019 C 88.893 226.773,88.587 225.716,88.633 225.670 C 88.679 225.624,90.322 226.090,92.285 226.706 C 103.287 230.158,108.809 230.050,122.963 226.106 L 124.516 225.673 122.963 225.451 C 113.393 224.088,104.647 219.847,92.285 210.578 C 79.572 201.046,69.548 181.587,67.868 163.177 C 67.590 160.133,67.502 160.234,69.375 161.451 C 74.683 164.900,79.453 166.706,85.636 167.608 C 89.721 168.204,98.169 168.899,101.228 168.890 L 102.196 168.887 100.347 167.902 C 87.517 161.066,77.596 149.515,70.831 133.535 C 65.181 120.187,67.270 97.999,75.642 82.442 C 76.883 80.136,76.736 80.113,78.134 82.835 C 83.930 94.123,98.026 108.179,114.687 119.284 C 135.632 133.245,158.700 142.254,180.410 144.952 C 184.717 145.487,201.647 145.689,201.647 145.205 C 201.647 145.038,201.188 142.745,200.627 140.109 C 192.336 101.140,223.888 64.567,262.855 67.978 " stroke="none" fill="#04aceb" fill-rule="evenodd"></path><path id="path2" d="M189.478 0.384 C 95.572 5.421,17.978 74.954,2.763 167.704 C 1.784 173.668,1.052 180.154,0.512 187.649 C 0.201 191.967,0.202 208.302,0.514 212.534 C 1.067 220.030,1.658 225.342,2.590 231.199 C 2.894 233.111,3.168 234.922,3.199 235.224 C 3.229 235.526,3.299 235.897,3.354 236.048 C 3.410 236.199,3.629 237.269,3.842 238.426 C 4.055 239.584,4.602 242.177,5.056 244.190 C 5.510 246.203,5.902 248.018,5.926 248.224 C 5.950 248.429,6.035 248.702,6.114 248.831 C 6.193 248.959,6.209 249.112,6.150 249.172 C 6.090 249.231,6.112 249.370,6.197 249.480 C 6.283 249.590,6.536 250.380,6.760 251.235 C 7.750 255.019,10.550 264.306,10.980 265.233 C 11.073 265.435,11.530 266.670,11.995 267.978 C 20.895 293.001,36.799 318.780,54.893 337.511 C 55.866 338.518,57.103 339.819,57.643 340.403 C 65.183 348.552,85.149 364.576,93.962 369.551 C 94.163 369.664,95.480 370.459,96.889 371.316 C 106.845 377.375,118.569 383.064,129.460 387.122 C 131.473 387.872,133.285 388.559,133.486 388.648 C 133.687 388.738,135.169 389.238,136.780 389.760 C 138.390 390.282,140.119 390.861,140.622 391.047 C 141.125 391.234,142.236 391.561,143.091 391.774 C 143.946 391.988,144.706 392.258,144.781 392.376 C 144.856 392.493,144.918 392.536,144.919 392.471 C 144.921 392.406,145.231 392.429,145.608 392.522 C 145.986 392.615,146.418 392.721,146.570 392.758 C 147.629 393.016,148.531 393.265,148.765 393.363 C 148.916 393.426,149.163 393.502,149.314 393.531 C 150.206 393.703,151.784 394.101,151.784 394.154 C 151.784 394.174,151.949 394.217,152.150 394.249 C 152.351 394.281,153.051 394.439,153.705 394.599 C 155.011 394.918,155.093 394.936,156.221 395.136 C 156.649 395.212,156.999 395.329,156.999 395.396 C 156.999 395.462,157.226 395.521,157.502 395.525 C 157.779 395.530,158.376 395.587,158.829 395.653 C 159.333 395.726,159.191 395.663,158.463 395.491 C 124.311 387.433,97.681 374.450,72.888 353.769 C -14.229 281.102,-23.400 150.899,52.675 66.811 C 121.602 -9.375,237.590 -20.562,319.762 41.053 C 396.561 98.638,421.382 201.930,379.229 288.518 C 378.188 290.656,377.378 292.406,377.429 292.406 C 377.552 292.406,381.364 284.549,382.788 281.358 C 404.657 232.357,405.703 175.248,385.643 125.526 C 353.592 46.082,274.787 -4.191,189.478 0.384 M376.744 293.367 C 376.529 293.795,375.979 294.844,375.523 295.700 C 375.066 296.555,374.779 297.173,374.885 297.072 C 375.146 296.823,377.369 292.589,377.239 292.589 C 377.181 292.589,376.959 292.939,376.744 293.367 M374.011 298.399 C 373.686 298.978,373.222 299.794,372.979 300.213 C 372.636 300.803,372.590 301.006,372.773 301.111 C 372.903 301.187,372.948 301.180,372.873 301.097 C 372.798 301.014,372.931 300.610,373.170 300.199 C 374.221 298.388,374.777 297.347,374.692 297.347 C 374.642 297.347,374.335 297.820,374.011 298.399 M371.899 302.059 C 371.621 302.537,371.275 303.134,371.128 303.385 L 370.862 303.843 371.204 303.431 C 371.604 302.950,372.613 301.189,372.489 301.189 C 372.442 301.189,372.177 301.581,371.899 302.059 M370.061 305.078 C 369.431 306.146,369.390 306.238,369.710 305.855 C 370.082 305.413,370.403 304.849,370.283 304.849 C 370.235 304.849,370.135 304.952,370.061 305.078 M368.991 306.786 C 368.820 307.047,368.712 307.291,368.751 307.330 C 368.789 307.368,368.965 307.155,369.142 306.856 C 369.536 306.189,369.418 306.134,368.991 306.786 M366.552 310.567 C 365.542 312.076,365.270 312.535,365.547 312.260 C 365.839 311.971,367.634 309.241,367.532 309.241 C 367.481 309.241,367.041 309.838,366.552 310.567 M361.757 317.475 C 361.542 317.777,361.407 318.024,361.457 318.024 C 361.508 318.024,361.725 317.777,361.940 317.475 C 362.155 317.173,362.289 316.926,362.239 316.926 C 362.189 316.926,361.972 317.173,361.757 317.475 M349.577 332.708 L 349.039 333.303 349.634 332.765 C 350.188 332.264,350.313 332.113,350.171 332.113 C 350.140 332.113,349.872 332.381,349.577 332.708 M348.234 334.198 C 347.914 334.539,347.876 334.668,348.065 334.777 C 348.198 334.854,348.245 334.848,348.169 334.764 C 348.092 334.680,348.209 334.419,348.429 334.186 C 348.649 333.952,348.787 333.760,348.737 333.760 C 348.687 333.760,348.460 333.957,348.234 334.198 M346.100 336.551 L 345.563 337.145 346.157 336.608 C 346.712 336.107,346.836 335.956,346.695 335.956 C 346.663 335.956,346.396 336.224,346.100 336.551 M341.260 341.583 L 338.975 343.916 341.308 341.631 C 343.475 339.509,343.724 339.250,343.593 339.250 C 343.566 339.250,342.516 340.300,341.260 341.583 M336.129 346.523 L 335.499 347.210 336.185 346.579 C 336.562 346.232,336.871 345.923,336.871 345.893 C 336.871 345.753,336.716 345.885,336.129 346.523 M159.835 395.974 C 159.898 396.075,160.067 396.157,160.212 396.157 C 160.357 396.157,160.476 396.075,160.476 395.974 C 160.476 395.874,160.306 395.791,160.099 395.791 C 159.892 395.791,159.773 395.874,159.835 395.974 M240.420 395.872 C 240.376 395.916,240.105 395.995,239.818 396.047 C 239.531 396.099,239.245 396.198,239.182 396.267 C 239.002 396.464,240.314 396.173,240.516 395.971 C 240.615 395.872,240.651 395.791,240.598 395.791 C 240.544 395.791,240.464 395.828,240.420 395.872 M162.855 396.514 C 163.312 396.670,164.447 396.767,164.303 396.638 C 164.261 396.601,163.815 396.523,163.312 396.465 C 162.695 396.393,162.546 396.410,162.855 396.514 M236.379 396.703 C 236.109 396.785,235.841 396.805,235.785 396.748 C 235.728 396.692,235.682 396.743,235.682 396.862 C 235.682 397.099,236.553 396.966,236.862 396.683 C 237.060 396.501,237.047 396.502,236.379 396.703 M164.501 396.768 C 164.501 397.004,166.009 397.284,166.208 397.086 C 166.348 396.946,166.295 396.889,166.025 396.889 C 165.816 396.889,165.388 396.838,165.073 396.775 C 164.759 396.712,164.501 396.709,164.501 396.768 M166.514 397.142 C 166.514 397.181,166.720 397.252,166.972 397.300 C 167.223 397.348,167.429 397.317,167.429 397.230 C 167.429 397.143,167.223 397.072,166.972 397.072 C 166.720 397.072,166.514 397.104,166.514 397.142 M167.641 397.340 C 167.707 397.409,168.225 397.528,168.791 397.605 C 169.358 397.682,169.757 397.684,169.678 397.610 C 169.494 397.439,167.479 397.171,167.641 397.340 M170.067 397.758 C 170.252 397.943,171.088 397.951,170.974 397.767 C 170.925 397.687,170.669 397.621,170.407 397.621 C 170.145 397.621,169.992 397.683,170.067 397.758 M229.826 397.804 L 229.369 397.951 229.872 397.969 C 230.149 397.979,230.375 397.905,230.375 397.804 C 230.375 397.704,230.355 397.629,230.329 397.639 C 230.304 397.649,230.078 397.724,229.826 397.804 M171.546 397.977 C 171.892 398.135,173.615 398.248,173.452 398.102 C 173.410 398.064,172.882 397.983,172.278 397.922 C 171.554 397.848,171.305 397.867,171.546 397.977 M173.839 398.234 C 173.946 398.344,174.586 398.469,175.840 398.624 C 176.333 398.685,176.588 398.660,176.481 398.560 C 176.294 398.385,173.672 398.062,173.839 398.234 M222.873 398.719 C 222.439 398.858,222.447 398.867,223.010 398.884 C 223.337 398.894,223.605 398.820,223.605 398.719 C 223.605 398.512,223.519 398.512,222.873 398.719 M178.592 398.856 C 178.592 398.932,178.882 399.008,179.235 399.027 C 179.592 399.045,179.831 398.984,179.773 398.889 C 179.648 398.687,178.591 398.658,178.592 398.856 M180.253 398.973 C 180.295 399.013,180.700 399.094,181.153 399.154 C 181.718 399.229,181.890 399.208,181.702 399.086 C 181.447 398.921,180.084 398.815,180.253 398.973 M219.579 399.085 C 219.357 399.229,219.383 399.263,219.716 399.265 C 219.943 399.267,220.128 399.186,220.128 399.085 C 220.128 398.856,219.934 398.856,219.579 399.085 M182.573 399.215 C 182.801 399.258,183.130 399.257,183.305 399.211 C 183.480 399.165,183.294 399.129,182.891 399.131 C 182.489 399.133,182.345 399.171,182.573 399.215 M184.975 399.479 C 185.341 399.585,185.661 399.590,185.759 399.493 C 185.856 399.396,185.603 399.323,185.139 399.315 L 184.355 399.301 184.975 399.479 M216.468 399.338 C 216.468 399.494,217.399 399.574,217.490 399.427 C 217.544 399.339,217.336 399.268,217.028 399.268 C 216.720 399.268,216.468 399.300,216.468 399.338 M187.008 399.521 C 187.008 399.684,187.749 399.769,187.842 399.617 C 187.899 399.526,187.734 399.451,187.476 399.451 C 187.219 399.451,187.008 399.483,187.008 399.521 M188.324 399.648 C 188.360 399.756,188.468 399.844,188.564 399.844 C 188.659 399.844,188.767 399.756,188.803 399.648 C 188.839 399.540,188.731 399.451,188.564 399.451 C 188.396 399.451,188.288 399.540,188.324 399.648 M190.362 399.755 C 190.533 399.926,192.695 399.988,192.590 399.819 C 192.544 399.743,191.995 399.671,191.372 399.656 C 190.748 399.642,190.293 399.687,190.362 399.755 M208.097 399.763 C 207.871 399.807,207.685 399.911,207.685 399.996 C 207.685 400.184,208.385 400.017,208.522 399.795 C 208.577 399.706,208.596 399.645,208.565 399.659 C 208.534 399.673,208.323 399.720,208.097 399.763 M195.686 399.956 C 195.863 400.133,199.275 400.159,199.165 399.982 C 199.115 399.900,198.284 399.834,197.319 399.834 C 196.354 399.834,195.619 399.889,195.686 399.956 M199.538 399.965 C 199.703 400.130,203.469 400.161,203.570 399.997 C 203.614 399.926,202.698 399.862,201.534 399.856 C 200.370 399.849,199.472 399.899,199.538 399.965 " stroke="none" fill="#12c48e" fill-rule="evenodd"></path><path id="path3" d="M196.203 1.415 C 196.681 1.453,197.463 1.453,197.941 1.415 C 198.419 1.378,198.028 1.347,197.072 1.347 C 196.116 1.347,195.725 1.378,196.203 1.415 M202.790 1.415 C 203.269 1.453,204.051 1.453,204.529 1.415 C 205.007 1.378,204.616 1.347,203.660 1.347 C 202.704 1.347,202.312 1.378,202.790 1.415 M190.714 1.590 C 190.890 1.636,191.178 1.636,191.354 1.590 C 191.530 1.544,191.386 1.506,191.034 1.506 C 190.682 1.506,190.538 1.544,190.714 1.590 M209.378 1.590 C 209.554 1.636,209.842 1.636,210.018 1.590 C 210.194 1.544,210.050 1.506,209.698 1.506 C 209.346 1.506,209.202 1.544,209.378 1.590 M336.505 55.135 C 336.505 55.167,336.773 55.434,337.100 55.730 L 337.694 56.267 337.157 55.672 C 336.656 55.118,336.505 54.994,336.505 55.135 M344.739 63.369 C 344.739 63.401,345.007 63.668,345.334 63.964 L 345.929 64.501 345.391 63.907 C 344.890 63.352,344.739 63.228,344.739 63.369 M54.792 64.456 L 54.254 65.050 54.849 64.513 C 55.403 64.012,55.528 63.861,55.386 63.861 C 55.355 63.861,55.087 64.129,54.792 64.456 M216.917 84.950 L 216.194 85.727 216.972 85.004 C 217.399 84.606,217.749 84.256,217.749 84.226 C 217.749 84.088,217.590 84.226,216.917 84.950 M399.311 190.668 C 399.311 191.020,399.348 191.164,399.394 190.988 C 399.440 190.812,399.440 190.524,399.394 190.348 C 399.348 190.172,399.311 190.316,399.311 190.668 M1.150 194.785 C 1.152 195.288,1.187 195.472,1.229 195.194 C 1.271 194.916,1.270 194.504,1.227 194.279 C 1.183 194.054,1.149 194.282,1.150 194.785 M399.510 195.791 C 399.510 196.446,399.543 196.713,399.583 196.386 C 399.624 196.059,399.624 195.524,399.583 195.197 C 399.543 194.870,399.510 195.137,399.510 195.791 M399.510 205.306 C 399.510 205.961,399.543 206.228,399.583 205.901 C 399.624 205.574,399.624 205.039,399.583 204.712 C 399.543 204.385,399.510 204.652,399.510 205.306 M1.150 206.496 C 1.152 206.999,1.187 207.183,1.229 206.905 C 1.271 206.627,1.270 206.215,1.227 205.990 C 1.183 205.765,1.149 205.993,1.150 206.496 M399.311 210.430 C 399.311 210.782,399.348 210.926,399.394 210.750 C 399.440 210.574,399.440 210.286,399.394 210.110 C 399.348 209.934,399.311 210.078,399.311 210.430 M351.407 330.512 L 350.869 331.107 351.464 330.570 C 352.018 330.069,352.143 329.918,352.001 329.918 C 351.970 329.918,351.702 330.185,351.407 330.512 M350.126 331.976 L 349.588 332.571 350.183 332.033 C 350.737 331.533,350.862 331.382,350.720 331.382 C 350.689 331.382,350.421 331.649,350.126 331.976 M348.479 333.806 L 347.941 334.401 348.536 333.863 C 349.090 333.362,349.215 333.211,349.074 333.211 C 349.042 333.211,348.774 333.479,348.479 333.806 M346.837 335.636 L 345.929 336.597 346.889 335.688 C 347.782 334.845,347.934 334.675,347.797 334.675 C 347.768 334.675,347.336 335.108,346.837 335.636 M341.169 341.491 L 337.511 345.197 341.217 341.539 C 344.660 338.140,345.005 337.786,344.875 337.786 C 344.849 337.786,343.181 339.453,341.169 341.491 M56.999 339.067 C 57.495 339.570,57.941 339.982,57.992 339.982 C 58.042 339.982,57.678 339.570,57.182 339.067 C 56.686 338.564,56.240 338.152,56.189 338.152 C 56.139 338.152,56.503 338.564,56.999 339.067 M61.848 343.916 C 62.395 344.469,62.883 344.922,62.934 344.922 C 62.984 344.922,62.578 344.469,62.031 343.916 C 61.484 343.362,60.996 342.909,60.946 342.909 C 60.895 342.909,61.301 343.362,61.848 343.916 M335.309 347.164 L 334.401 348.124 335.361 347.216 C 335.890 346.717,336.322 346.285,336.322 346.256 C 336.322 346.119,336.153 346.271,335.309 347.164 M333.201 349.085 L 332.571 349.771 333.257 349.141 C 333.634 348.794,333.943 348.485,333.943 348.454 C 333.943 348.315,333.788 348.446,333.201 349.085 M331.644 350.457 L 331.107 351.052 331.702 350.515 C 332.256 350.014,332.381 349.863,332.239 349.863 C 332.208 349.863,331.940 350.130,331.644 350.457 M330.181 351.738 L 329.643 352.333 330.238 351.796 C 330.792 351.295,330.917 351.144,330.775 351.144 C 330.744 351.144,330.476 351.411,330.181 351.738 M311.894 365.707 L 311.345 366.178 311.940 365.785 C 312.267 365.568,312.534 365.356,312.534 365.312 C 312.534 365.175,312.457 365.223,311.894 365.707 M294.556 376.134 C 293.872 376.505,293.914 376.660,294.602 376.304 C 294.904 376.148,295.151 375.981,295.151 375.933 C 295.151 375.815,295.131 375.822,294.556 376.134 M289.113 378.957 C 287.553 379.752,286.339 380.406,286.416 380.411 C 286.610 380.425,292.040 377.695,292.040 377.583 C 292.040 377.458,292.238 377.365,289.113 378.957 M224.016 398.479 C 224.193 398.525,224.481 398.525,224.657 398.479 C 224.833 398.433,224.689 398.396,224.337 398.396 C 223.984 398.396,223.840 398.433,224.016 398.479 M222.370 398.662 C 222.546 398.708,222.834 398.708,223.010 398.662 C 223.186 398.616,223.042 398.579,222.690 398.579 C 222.338 398.579,222.194 398.616,222.370 398.662 M220.723 398.845 C 220.899 398.891,221.187 398.891,221.363 398.845 C 221.539 398.799,221.395 398.762,221.043 398.762 C 220.691 398.762,220.547 398.799,220.723 398.845 M218.804 399.032 C 219.031 399.075,219.361 399.074,219.536 399.028 C 219.710 398.982,219.524 398.946,219.122 398.948 C 218.719 398.950,218.576 398.988,218.804 399.032 M216.700 399.216 C 216.978 399.258,217.390 399.257,217.615 399.214 C 217.840 399.170,217.612 399.136,217.109 399.137 C 216.606 399.139,216.422 399.174,216.700 399.216 M214.229 399.397 C 214.457 399.441,214.786 399.440,214.961 399.394 C 215.136 399.348,214.950 399.312,214.547 399.314 C 214.145 399.316,214.001 399.354,214.229 399.397 M189.067 399.577 C 189.243 399.623,189.531 399.623,189.707 399.577 C 189.883 399.531,189.739 399.494,189.387 399.494 C 189.035 399.494,188.891 399.531,189.067 399.577 M211.210 399.582 C 211.488 399.624,211.900 399.623,212.125 399.580 C 212.350 399.536,212.123 399.502,211.619 399.503 C 211.116 399.505,210.932 399.540,211.210 399.582 M193.004 399.767 C 193.333 399.807,193.827 399.807,194.102 399.765 C 194.377 399.723,194.108 399.690,193.504 399.691 C 192.900 399.692,192.675 399.726,193.004 399.767 M206.725 399.766 C 207.052 399.807,207.587 399.807,207.914 399.766 C 208.241 399.726,207.973 399.693,207.319 399.693 C 206.665 399.693,206.398 399.726,206.725 399.766 " stroke="none" fill="#53b2dc" fill-rule="evenodd"></path><path id="path4" d="M255.492 67.835 C 255.770 67.877,256.182 67.876,256.407 67.832 C 256.632 67.789,256.404 67.755,255.901 67.756 C 255.398 67.757,255.214 67.793,255.492 67.835 M259.152 67.835 C 259.430 67.877,259.842 67.876,260.067 67.832 C 260.292 67.789,260.064 67.755,259.561 67.756 C 259.058 67.757,258.874 67.793,259.152 67.835 M338.381 76.029 C 338.383 76.432,338.421 76.575,338.464 76.347 C 338.508 76.120,338.506 75.790,338.461 75.615 C 338.415 75.440,338.379 75.627,338.381 76.029 M298.986 84.767 C 299.744 85.575,299.909 85.720,299.909 85.582 C 299.909 85.553,299.517 85.162,299.039 84.713 L 298.170 83.898 298.986 84.767 M89.844 98.719 C 90.186 99.071,90.506 99.360,90.557 99.360 C 90.607 99.360,90.369 99.071,90.027 98.719 C 89.686 98.367,89.366 98.079,89.315 98.079 C 89.265 98.079,89.503 98.367,89.844 98.719 M95.334 104.209 C 95.675 104.561,95.996 104.849,96.046 104.849 C 96.096 104.849,95.858 104.561,95.517 104.209 C 95.176 103.856,94.855 103.568,94.805 103.568 C 94.754 103.568,94.993 103.856,95.334 104.209 M315.601 107.540 C 315.829 107.584,316.158 107.582,316.333 107.537 C 316.508 107.491,316.322 107.455,315.919 107.457 C 315.517 107.459,315.374 107.496,315.601 107.540 M319.810 107.540 C 320.038 107.584,320.367 107.582,320.542 107.537 C 320.717 107.491,320.531 107.455,320.128 107.457 C 319.726 107.459,319.582 107.496,319.810 107.540 M67.756 110.613 C 67.757 111.116,67.793 111.300,67.835 111.022 C 67.877 110.744,67.876 110.332,67.832 110.107 C 67.789 109.882,67.755 110.110,67.756 110.613 M339.067 113.175 C 338.622 113.628,338.300 113.998,338.350 113.998 C 338.400 113.998,338.805 113.628,339.250 113.175 C 339.694 112.722,340.017 112.351,339.966 112.351 C 339.916 112.351,339.511 112.722,339.067 113.175 M334.764 117.704 L 332.388 120.128 334.812 117.752 C 337.065 115.545,337.320 115.279,337.189 115.279 C 337.162 115.279,336.071 116.370,334.764 117.704 M67.756 117.383 C 67.757 117.887,67.793 118.071,67.835 117.793 C 67.877 117.514,67.876 117.103,67.832 116.878 C 67.789 116.653,67.755 116.880,67.756 117.383 M199.318 124.794 C 199.318 125.247,199.354 125.432,199.397 125.206 C 199.441 124.979,199.441 124.609,199.397 124.382 C 199.354 124.156,199.318 124.341,199.318 124.794 M199.320 130.192 C 199.322 130.695,199.357 130.879,199.399 130.601 C 199.441 130.323,199.440 129.911,199.397 129.686 C 199.353 129.461,199.319 129.689,199.320 130.192 M199.497 133.852 C 199.499 134.254,199.537 134.397,199.580 134.170 C 199.624 133.942,199.623 133.613,199.577 133.438 C 199.531 133.263,199.495 133.449,199.497 133.852 M317.155 135.316 C 317.157 135.718,317.195 135.861,317.238 135.634 C 317.282 135.406,317.280 135.077,317.235 134.902 C 317.189 134.727,317.153 134.913,317.155 135.316 M317.355 142.269 C 317.355 143.074,317.387 143.381,317.426 142.950 C 317.465 142.520,317.464 141.861,317.425 141.486 C 317.386 141.112,317.354 141.464,317.355 142.269 M184.309 145.414 C 184.485 145.460,184.774 145.460,184.950 145.414 C 185.126 145.368,184.982 145.331,184.629 145.331 C 184.277 145.331,184.133 145.368,184.309 145.414 M190.884 145.608 C 192.865 145.638,196.159 145.638,198.204 145.608 C 200.248 145.579,198.628 145.555,194.602 145.555 C 190.576 145.555,188.903 145.579,190.884 145.608 M317.353 152.242 C 317.353 152.996,317.386 153.305,317.425 152.928 C 317.465 152.550,317.465 151.933,317.425 151.555 C 317.386 151.178,317.353 151.487,317.353 152.242 M317.159 156.816 C 317.159 157.269,317.194 157.454,317.238 157.228 C 317.282 157.001,317.282 156.631,317.238 156.404 C 317.194 156.178,317.159 156.363,317.159 156.816 M316.972 159.835 C 316.974 160.238,317.012 160.381,317.055 160.153 C 317.099 159.926,317.097 159.596,317.052 159.421 C 317.006 159.247,316.970 159.433,316.972 159.835 M67.746 161.574 C 67.746 161.926,67.784 162.070,67.830 161.894 C 67.876 161.718,67.876 161.430,67.830 161.253 C 67.784 161.077,67.746 161.221,67.746 161.574 M94.465 168.653 C 94.641 168.699,94.929 168.699,95.105 168.653 C 95.281 168.607,95.137 168.569,94.785 168.569 C 94.433 168.569,94.289 168.607,94.465 168.653 M97.484 168.839 C 97.710 168.883,98.081 168.883,98.307 168.839 C 98.534 168.795,98.349 168.760,97.896 168.760 C 97.443 168.760,97.258 168.795,97.484 168.839 M101.421 169.024 C 101.699 169.066,102.110 169.065,102.336 169.022 C 102.561 168.978,102.333 168.944,101.830 168.945 C 101.327 168.947,101.142 168.982,101.421 169.024 M88.838 207.868 C 89.231 208.271,89.594 208.600,89.644 208.600 C 89.695 208.600,89.414 208.271,89.021 207.868 C 88.628 207.466,88.265 207.136,88.215 207.136 C 88.165 207.136,88.445 207.466,88.838 207.868 M123.711 225.500 C 123.753 225.536,124.035 225.621,124.337 225.689 C 124.738 225.779,124.812 225.762,124.611 225.626 C 124.364 225.459,123.528 225.342,123.711 225.500 M105.078 229.230 C 105.757 229.265,106.869 229.265,107.548 229.230 C 108.227 229.195,107.672 229.166,106.313 229.166 C 104.954 229.166,104.398 229.195,105.078 229.230 M104.026 252.699 C 104.419 253.102,104.781 253.431,104.832 253.431 C 104.882 253.431,104.602 253.102,104.209 252.699 C 103.816 252.296,103.453 251.967,103.402 251.967 C 103.352 251.967,103.633 252.296,104.026 252.699 M106.770 255.444 C 107.163 255.846,107.526 256.176,107.577 256.176 C 107.627 256.176,107.346 255.846,106.953 255.444 C 106.560 255.041,106.197 254.712,106.147 254.712 C 106.097 254.712,106.377 255.041,106.770 255.444 M267.235 278.728 L 266.697 279.323 267.292 278.786 C 267.846 278.285,267.971 278.134,267.829 278.134 C 267.798 278.134,267.530 278.401,267.235 278.728 M262.121 284.035 L 258.829 287.374 262.168 284.082 C 265.271 281.024,265.590 280.695,265.460 280.695 C 265.434 280.695,263.931 282.198,262.121 284.035 M256.805 289.158 L 256.267 289.753 256.862 289.216 C 257.416 288.715,257.541 288.564,257.399 288.564 C 257.368 288.564,257.100 288.831,256.805 289.158 M64.410 302.642 C 64.410 302.737,64.505 302.873,64.621 302.945 C 64.747 303.023,64.783 302.996,64.710 302.878 C 64.643 302.770,64.733 302.643,64.911 302.597 C 65.156 302.533,65.135 302.508,64.822 302.491 C 64.595 302.480,64.410 302.548,64.410 302.642 M142.040 330.593 C 142.216 330.639,142.505 330.639,142.681 330.593 C 142.857 330.547,142.713 330.509,142.360 330.509 C 142.008 330.509,141.864 330.547,142.040 330.593 M144.879 330.779 C 145.106 330.823,145.436 330.821,145.611 330.775 C 145.785 330.730,145.599 330.694,145.197 330.696 C 144.794 330.698,144.651 330.735,144.879 330.779 M160.615 330.779 C 160.843 330.823,161.172 330.821,161.347 330.775 C 161.522 330.730,161.336 330.694,160.933 330.696 C 160.531 330.698,160.388 330.735,160.615 330.779 M148.715 330.965 C 149.040 331.005,149.616 331.006,149.996 330.966 C 150.376 330.927,150.110 330.893,149.405 330.893 C 148.701 330.892,148.390 330.924,148.715 330.965 M156.130 330.966 C 156.507 331.005,157.125 331.005,157.502 330.966 C 157.880 330.926,157.571 330.894,156.816 330.894 C 156.061 330.894,155.753 330.926,156.130 330.966 " stroke="none" fill="#75d4f4" fill-rule="evenodd"></path></g></svg>